<svg width="32" height="32" viewBox="0 0 32 32" fill="none" xmlns="http://www.w3.org/2000/svg">
<path fill-rule="evenodd" clip-rule="evenodd" d="M23.0182 7.81343C23.408 7.9859 23.7861 8.1804 24.1509 8.39536C24.4909 8.59489 24.8214 8.81331 25.1405 9.05017L27.6807 8.23391C28.2999 8.03494 28.9729 8.29796 29.2978 8.86594L31.8147 13.2656C32.1396 13.8336 32.0288 14.5533 31.5485 14.995L29.578 16.8071C29.6232 17.2188 29.6454 17.6311 29.6451 18.0423C29.6455 18.4545 29.6233 18.8679 29.578 19.2806L31.5485 21.0927C32.0288 21.5344 32.1396 22.2541 31.8147 22.8221L29.2978 27.2218C28.9729 27.7897 28.2999 28.0528 27.6807 27.8538L25.1405 27.0375C24.8175 27.2773 24.4828 27.4981 24.1384 27.6996C23.7775 27.9117 23.4036 28.1037 23.0182 28.2742L22.4485 30.9026C22.3097 31.5433 21.7475 32 21.0977 32H16.0639C15.4141 32 14.8519 31.5433 14.713 30.9026L14.1433 28.2742C13.7802 28.1136 13.4273 27.9338 13.0859 27.7362C12.7192 27.525 12.3635 27.2919 12.0208 27.0375L9.48057 27.8538C8.86135 28.0528 8.1884 27.7897 7.86348 27.2218L5.3466 22.8221C5.02168 22.2541 5.13246 21.5344 5.6128 21.0927L7.58332 19.2806C7.53803 18.8684 7.51583 18.4555 7.51621 18.0438C7.51583 17.6322 7.53803 17.2193 7.58332 16.8071L5.61281 14.995C5.13246 14.5533 5.02168 13.8336 5.3466 13.2656L7.86348 8.86594C8.1884 8.29796 8.86135 8.03494 9.48057 8.23391L12.0208 9.05017C12.3597 8.79861 12.7114 8.56785 13.0738 8.35844C13.419 8.15808 13.776 7.97597 14.1433 7.81343L14.713 5.18508C14.8519 4.54438 15.4141 4.08771 16.0639 4.08771H21.0977C21.7475 4.08771 22.3097 4.54438 22.4485 5.18508L23.0182 7.81343Z" fill="#E4E4E4"/>
<path fill-rule="evenodd" clip-rule="evenodd" d="M14.4514 2.58065C14.1252 2.58065 13.8003 2.59226 13.4794 2.61548C13.0919 2.64387 12.6809 2.97806 12.5961 3.55742L12.4721 4.4C12.2595 5.85032 11.2535 6.92774 10.1354 7.52129C9.96706 7.61032 9.80266 7.70581 9.64088 7.80387C8.56057 8.46839 7.11363 8.79097 5.73715 8.24774L4.93606 7.93161C4.38546 7.71484 3.88837 7.89807 3.66787 8.21677C3.30385 8.74452 2.97767 9.30065 2.69455 9.88258C2.52493 10.2284 2.61235 10.7445 3.07683 11.1071L3.7592 11.64C4.9204 12.5458 5.3627 13.9432 5.32225 15.1987L5.31834 15.4839L5.32225 15.769C5.3627 17.0245 4.9204 18.4219 3.7592 19.3277L3.07683 19.8606C2.61235 20.2232 2.52493 20.7394 2.69455 21.0852C2.97767 21.6671 3.30385 22.2232 3.66787 22.751C3.88837 23.0697 4.38546 23.2529 4.93606 23.0361L5.73715 22.72C7.11363 22.1768 8.56057 22.5006 9.64088 23.1639C9.80266 23.2619 9.96706 23.3574 10.1354 23.4465C11.2535 24.04 12.2595 25.1174 12.4721 26.5677L12.5961 27.4103C12.6809 27.9897 13.0919 28.3239 13.4794 28.3523C13.8003 28.3755 14.1252 28.3871 14.4514 28.3871C14.7776 28.3871 15.1024 28.3755 15.4234 28.3523C15.8122 28.3239 16.2219 27.9897 16.3067 27.4103L16.4306 26.5677C16.6433 25.1174 17.6493 24.04 18.7674 23.4465C18.9357 23.3574 19.1001 23.2619 19.2632 23.1639C20.3422 22.5006 21.7891 22.1768 23.1656 22.72L23.9667 23.0361C24.5173 23.2529 25.0144 23.0697 25.2349 22.751C25.5989 22.2232 25.9251 21.6658 26.2082 21.0852C26.3778 20.7394 26.2904 20.2232 25.8259 19.8606L25.1436 19.3277C23.9824 18.4219 23.5401 17.0245 23.5805 15.769L23.5844 15.4839L23.5805 15.1987C23.5401 13.9432 23.9824 12.5458 25.1436 11.64L25.8259 11.1071C26.2904 10.7445 26.3778 10.2284 26.2082 9.88258C25.9251 9.30194 25.5989 8.74452 25.2349 8.21677C25.0144 7.89807 24.5173 7.71484 23.9667 7.93161L23.1656 8.24774C21.7891 8.79097 20.3422 8.46839 19.2632 7.80387C19.1001 7.70581 18.9357 7.61032 18.7674 7.52129C17.6493 6.92774 16.6433 5.85032 16.4306 4.4L16.3067 3.55742C16.2219 2.97806 15.8122 2.64387 15.4234 2.61548C15.1024 2.59226 14.7776 2.58065 14.4514 2.58065ZM13.2889 0.0425806C13.6725 0.0141936 14.06 0 14.4514 0C14.8428 0 15.2303 0.0141936 15.6139 0.0425806C17.4209 0.172903 18.6578 1.6129 18.8887 3.1871L19.0127 4.02968C19.0779 4.47355 19.4145 4.93548 20.0017 5.24774C20.2183 5.36258 20.4309 5.48387 20.6384 5.6129C21.2046 5.96 21.7774 6.01677 22.1988 5.85032L23.0012 5.53419C24.4925 4.94581 26.3687 5.28516 27.389 6.76129C27.8261 7.39484 28.2188 8.06323 28.5593 8.76C29.3461 10.3729 28.7029 12.151 27.4412 13.1342L26.7601 13.6658C26.4039 13.9432 26.1678 14.4619 26.1887 15.1187C26.1926 15.24 26.1939 15.3613 26.1939 15.4839C26.1939 15.6065 26.1926 15.7277 26.1887 15.849C26.1678 16.5058 26.4039 17.0245 26.7601 17.3019L27.4412 17.8336C28.7029 18.8168 29.3461 20.5948 28.5593 22.2077C28.2188 22.9045 27.8261 23.5729 27.389 24.2065C26.3687 25.6826 24.4925 26.0219 23.0012 25.4335L22.1988 25.1174C21.7774 24.951 21.2046 25.0077 20.6384 25.3548C20.4309 25.4839 20.2183 25.6052 20.0017 25.72C19.4145 26.0323 19.0779 26.4942 19.0127 26.9381L18.8887 27.7806C18.6578 29.3548 17.4209 30.7948 15.6139 30.9252C15.2303 30.9536 14.8428 30.9677 14.4514 30.9677C14.06 30.9677 13.6725 30.9536 13.2889 30.9252C11.4832 30.7948 10.245 29.3548 10.014 27.7806L9.89009 26.9381C9.82485 26.4942 9.48823 26.0323 8.90111 25.72C8.68453 25.6052 8.47186 25.4839 8.26441 25.3548C7.69816 25.0077 7.12538 24.951 6.70396 25.1174L5.90156 25.4335C4.41026 26.0219 2.53407 25.6826 1.51378 24.2065C1.0767 23.5729 0.683979 22.9045 0.344751 22.2077C-0.4433 20.5948 0.199927 18.8168 1.46159 17.8336L2.14266 17.3019C2.49885 17.0245 2.735 16.5058 2.71412 15.849C2.71021 15.7277 2.70891 15.6065 2.70891 15.4839C2.70891 15.3613 2.71021 15.24 2.71412 15.1187C2.735 14.4619 2.49885 13.9432 2.14266 13.6658L1.46159 13.1342C0.199927 12.151 -0.4433 10.3729 0.344751 8.76C0.683979 8.06323 1.0767 7.39484 1.51378 6.76129C2.53407 5.28516 4.41026 4.94581 5.90156 5.53419L6.70396 5.85032C7.12538 6.01677 7.69816 5.96 8.26441 5.6129C8.47186 5.48387 8.68453 5.36258 8.90111 5.24774C9.48823 4.93548 9.82485 4.47355 9.89009 4.02968L10.014 3.1871C10.245 1.6129 11.4832 0.172903 13.2889 0.0425806ZM14.4514 11.6129C12.2895 11.6129 10.5372 13.3458 10.5372 15.4839C10.5372 17.6219 12.2895 19.3548 14.4514 19.3548C16.6133 19.3548 18.3656 17.6219 18.3656 15.4839C18.3656 13.3458 16.6133 11.6129 14.4514 11.6129ZM7.9278 15.4839C7.9278 11.9213 10.8478 9.03226 14.4514 9.03226C18.0537 9.03226 20.975 11.9213 20.975 15.4839C20.975 19.0465 18.0537 21.9355 14.4514 21.9355C10.8478 21.9355 7.9278 19.0465 7.9278 15.4839Z" fill="#7F8B9C"/>
</svg>
