<svg width="33" height="32" viewBox="0 0 33 32" fill="none" xmlns="http://www.w3.org/2000/svg">
<path d="M9.47993 7.5H18.5H27.698C28.8518 7.5 29.9583 7.95835 30.7742 8.77421C31.5613 9.56131 32.0168 10.6202 32.0468 11.7329L32.4432 26.3992C32.4798 27.7513 32.0126 29.0687 31.1323 30.0956C30.0963 31.3043 28.5838 32 26.9918 32H10.7648C9.93089 32 9.10625 31.825 8.3442 31.4863C6.29267 30.5745 4.92755 28.5873 4.81257 26.3452L4.13469 13.1264C4.04975 11.47 4.73747 9.86788 5.99672 8.78852C6.96678 7.95704 8.20229 7.5 9.47993 7.5Z" fill="#E4E4E4"/>
<path fill-rule="evenodd" clip-rule="evenodd" d="M23.1429 3.42857H16.2857V1.28571C16.2857 0.575634 15.7101 0 15 0C14.2899 0 13.7143 0.575634 13.7143 1.28571V3.42857H6.85714V1.28571C6.85714 0.575634 6.28151 0 5.57143 0C4.86135 0 4.28571 0.575634 4.28571 1.28571V3.44779C1.88293 3.66432 0 5.6837 0 8.14286V11.1429V13.7143V25.2857C0 27.8893 2.11066 30 4.71429 30H25.2857C27.8893 30 30 27.8893 30 25.2857V13.7143V11.1429V8.14286C30 5.6837 28.1171 3.66432 25.7143 3.44779V1.28571C25.7143 0.575634 25.1387 0 24.4286 0C23.7185 0 23.1429 0.575634 23.1429 1.28571V3.42857ZM5.57143 6H4.71429C3.53082 6 2.57143 6.95939 2.57143 8.14286V11.1429H27.4286V8.14286C27.4286 6.95939 26.4692 6 25.2857 6H24.4286H15H5.57143ZM2.57143 25.2857V13.7143H27.4286V25.2857C27.4286 26.4692 26.4692 27.4286 25.2857 27.4286H4.71429C3.53082 27.4286 2.57143 26.4692 2.57143 25.2857Z" fill="#7F8B9C"/>
</svg>
