<svg width="32" height="26" viewBox="0 0 32 26" fill="none" xmlns="http://www.w3.org/2000/svg">
<path d="M7.07937 11.9403L18.5429 5.9963C19.1403 5.68651 19.8535 5.69797 20.4407 6.02679L30.9772 11.9272C31.6088 12.2809 32 12.9483 32 13.6722V24C32 25.1046 31.1046 26 30 26H8C6.89543 26 6 25.1046 6 24V13.7158C6 12.9689 6.41625 12.2842 7.07937 11.9403Z" fill="#E4E4E4"/>
<path fill-rule="evenodd" clip-rule="evenodd" d="M13.2037 0.446309C14.3237 -0.14877 15.6762 -0.14877 16.7962 0.446309L29.3487 7.11144C29.75 7.3244 30 7.73451 30 8.1799V20.3492C30 22.3657 28.3213 24 26.25 24H3.75C1.67875 24 0 22.3657 0 20.3492V8.1799C0 7.73451 0.25 7.3244 0.65125 7.11144L13.2037 0.446309ZM15.5988 2.58202C15.225 2.38366 14.7738 2.38366 14.4012 2.58202L3.86 8.1799L14.4012 13.7778C14.7738 13.9761 15.225 13.9761 15.5988 13.7778L26.14 8.1799L15.5988 2.58202ZM27.5 10.2304L16.7962 15.9135C15.6763 16.5086 14.3237 16.5086 13.2037 15.9135L2.5 10.2304V20.3492C2.5 21.021 3.06 21.5661 3.75 21.5661H26.25C26.94 21.5661 27.5 21.021 27.5 20.3492V10.2304Z" fill="#7F8B9C"/>
</svg>
