<svg width="31" height="31" viewBox="0 0 31 31" fill="none" xmlns="http://www.w3.org/2000/svg">
<path d="M13.5 7.5V7C13.5 5.34315 14.8431 4 16.5 4H20C21.6569 4 23 5.34315 23 7V7.5C23 9.15685 24.3431 10.5 26 10.5H28C29.6569 10.5 31 11.8431 31 13.5V28C31 29.6569 29.6569 31 28 31H8C6.34315 31 5 29.6569 5 28V13.5C5 11.8431 6.34315 10.5 8 10.5H10.5C12.1569 10.5 13.5 9.15685 13.5 7.5Z" fill="#E4E4E4"/>
<path fill-rule="evenodd" clip-rule="evenodd" d="M13.5 0H16.5C18.8965 0 20.8555 1.87338 20.9924 4.23559L21 4.5V6H25.5C27.9853 6 30 8.01472 30 10.5V25.5C30 27.9853 27.9853 30 25.5 30H4.5C2.01472 30 0 27.9853 0 25.5V10.5C0 8.01472 2.01472 6 4.5 6H9V4.5C9 2.10348 10.8734 0.144509 13.2356 0.00763904L13.5 0H16.5H13.5ZM27 21H3V25.5C3 26.3284 3.67157 27 4.5 27H25.5C26.3284 27 27 26.3284 27 25.5V21ZM25.5 9H4.5C3.67157 9 3 9.67157 3 10.5V18H27V10.5C27 9.67157 26.3284 9 25.5 9ZM16.5 3H13.5C12.7307 3 12.0967 3.57906 12.0101 4.32507L12 4.5V6H18V4.5C18 3.73075 17.4209 3.09674 16.6749 3.01009L16.5 3Z" fill="#7F8B9C"/>
</svg>
