<svg width="32" height="32" viewBox="0 0 32 32" fill="none" xmlns="http://www.w3.org/2000/svg">
<path d="M8.22529 12.301L18.3505 5.69765C18.6887 5.47706 19.1264 5.48155 19.4601 5.70903L29.1391 12.3083C29.4123 12.4946 29.5758 12.8039 29.5758 13.1346V29.5152C29.5758 30.6197 28.6803 31.5152 27.5757 31.5152H10.1918C9.10719 31.5152 8.22025 30.6507 8.19245 29.5664L7.77188 13.1643C7.76299 12.8174 7.9346 12.4906 8.22529 12.301Z" fill="#00CC96"/>
<path fill-rule="evenodd" clip-rule="evenodd" d="M16.7837 2.96054C16.317 2.61594 15.6837 2.61594 15.2157 2.96054L6.66649 9.2634V25.0368C6.66649 25.7827 7.26382 26.3881 7.99981 26.3881H10.6664V18.2798C10.6664 16.0406 12.4571 14.2257 14.6664 14.2257H17.333C19.5423 14.2257 21.333 16.0406 21.333 18.2798V26.3881H23.9996C24.7356 26.3881 25.3329 25.7827 25.3329 25.0368V9.2634L16.7837 2.96054ZM27.9996 11.2283L29.8822 12.6162C30.4769 13.0554 31.3115 12.9216 31.7449 12.3175C32.1782 11.7148 32.0462 10.8688 31.4502 10.4296L18.353 0.775357C16.949 -0.258452 15.0504 -0.258452 13.6464 0.775357L0.549219 10.4296C-0.0467741 10.8688 -0.177439 11.7148 0.254556 12.3175C0.687884 12.9216 1.52254 13.0554 2.1172 12.6162L3.99985 11.2283V25.0368C3.99985 27.276 5.79049 29.0909 7.9998 29.0909H23.9996C26.2089 29.0909 27.9996 27.276 27.9996 25.0368V11.2283ZM18.6663 26.3881V18.2798C18.6663 17.5339 18.069 16.9284 17.333 16.9284H14.6664C13.9304 16.9284 13.3331 17.5339 13.3331 18.2798V26.3881H18.6663Z" fill="#161616"/>
</svg>
