<svg width="32" height="32" viewBox="0 0 32 32" fill="none" xmlns="http://www.w3.org/2000/svg">
<circle cx="18" cy="18" r="14" fill="#E4E4E4"/>
<path fill-rule="evenodd" clip-rule="evenodd" d="M15 30C23.2843 30 30 23.2843 30 15C30 6.71573 23.2843 0 15 0C6.71573 0 0 6.71573 0 15C0 23.2843 6.71573 30 15 30ZM15 27.6923C7.99023 27.6923 2.30769 22.0098 2.30769 15C2.30769 7.99023 7.99023 2.30769 15 2.30769C22.0098 2.30769 27.6923 7.99023 27.6923 15C27.6923 22.0098 22.0098 27.6923 15 27.6923ZM15.44 17.8L15.5 15.78C16.6333 15.66 17.5467 15.2933 18.24 14.68C18.9333 14.0667 19.28 13.1933 19.28 12.06C19.28 10.9667 18.8567 10.1167 18.01 9.51C17.1633 8.90333 16.0467 8.6 14.66 8.6C13.2867 8.6 12.1767 8.91333 11.33 9.54C10.4833 10.1667 9.95333 11 9.74 12.04L11.72 12.98C11.8 12.1933 12.0867 11.58 12.58 11.14C13.0733 10.7 13.72 10.48 14.52 10.48C15.3333 10.48 15.95 10.6467 16.37 10.98C16.79 11.3133 17 11.7733 17 12.36C17 13.0533 16.72 13.59 16.16 13.97C15.6 14.35 14.6667 14.62 13.36 14.78L13.4 17.8H15.44ZM14.42 22.18C14.8733 22.18 15.2333 22.0533 15.5 21.8C15.7667 21.5467 15.9 21.2 15.9 20.76C15.9 20.3333 15.7667 19.99 15.5 19.73C15.2333 19.47 14.8733 19.34 14.42 19.34C13.9667 19.34 13.6033 19.47 13.33 19.73C13.0567 19.99 12.92 20.3333 12.92 20.76C12.92 21.2 13.0533 21.5467 13.32 21.8C13.5867 22.0533 13.9533 22.18 14.42 22.18Z" fill="#7F8B9C"/>
</svg>
