<svg width="32" height="32" viewBox="0 0 32 32" fill="none" xmlns="http://www.w3.org/2000/svg">
<path fill-rule="evenodd" clip-rule="evenodd" d="M28.8088 17.8546L32 17.5C31.5 13.8333 28.3 6.2 19.5 5C19.5 6.08695 19.5246 7.19851 19.5638 8.27449C18.7378 8.09471 17.8799 8 17 8C10.3726 8 5 13.3726 5 20C5 26.6274 10.3726 32 17 32C23.6274 32 29 26.6274 29 20C29 19.2677 28.9344 18.5507 28.8088 17.8546Z" fill="#E4E4E4"/>
<path fill-rule="evenodd" clip-rule="evenodd" d="M15 1.36364C15 0.610909 15.6109 0 16.3636 0C23.895 0 30 6.105 30 13.6364C30 14.3891 29.3891 15 28.6364 15H27.2059C27.2495 15.4486 27.2727 15.9041 27.2727 16.3636C27.2727 23.895 21.1677 30 13.6364 30C6.105 30 0 23.895 0 16.3636C0 8.83227 6.105 2.72727 13.6364 2.72727C14.0959 2.72727 14.5514 2.75045 15 2.79409V1.36364ZM15 5.53909C14.5541 5.48318 14.0986 5.45455 13.6364 5.45455C7.61182 5.45455 2.72727 10.3391 2.72727 16.3636C2.72727 22.3882 7.61182 27.2727 13.6364 27.2727C19.6609 27.2727 24.5455 22.3882 24.5455 16.3636C24.5455 15.9014 24.5168 15.4459 24.4609 15H16.3636C15.6109 15 15 14.3891 15 13.6364V5.53909ZM17.7273 2.81182V12.2727H27.1882C26.5732 7.33773 22.6623 3.42682 17.7273 2.81182Z" fill="#7F8B9C"/>
</svg>
