<?xml version="1.0" encoding="UTF-8"?>
<svg width="57px" height="59px" viewBox="0 0 57 59" version="1.1" xmlns="http://www.w3.org/2000/svg" xmlns:xlink="http://www.w3.org/1999/xlink">
    <title>facebook</title>
    <g id="Sign-in" stroke="none" stroke-width="1" fill="none" fill-rule="evenodd">
        <g id="Sign-in-(desktop)" transform="translate(-1740.000000, -38.000000)">
            <g id="facebook" transform="translate(1740.000000, 38.000000)">
                <rect id="Rectangle-Copy-5" fill="#00CC96" x="4" y="5" width="53" height="54"></rect>
                <path d="M2.69769817,0.885782852 C18.8662683,-0.329206028 35.0822739,-0.283310226 51.2982795,0.955876441 L50.0957006,0.866575165 C50.5272574,-0.0818645136 52.2712917,0.0740641167 52.2712917,1.33436106 L52.2712917,1.33436106 L52.2712917,54.8520857 C52.2712917,56.1892508 50.3080248,56.2832238 50.0320768,55.1340047 C33.6654068,53.9445054 17.248857,54.0479693 0.832307144,55.3024811 L2.2206441,55.2015251 C1.88545254,56.2789633 -1.70530257e-13,56.1624835 -1.70530257e-13,54.8520857 L-1.70530257e-13,54.8520857 L-1.70530257e-13,1.33436106 C-1.70530257e-13,0.0494455679 1.81283548,-0.0875349121 2.19935596,0.923419616 Z M49.9997487,3.1299624 C33.643347,1.94464496 17.2378271,2.04881218 0.832307144,3.30248106 L2.271,3.196 L2.27157117,52.918097 C17.9595069,51.7176623 33.6924969,51.7049452 49.4272047,52.8181929 L49.999,52.86 Z" id="Combined-Shape-Copy" fill="#041C3F"></path>
                <path d="M33.0667969,29.875 L33.9,24.4457031 L28.6904297,24.4457031 L28.6904297,20.9224609 C28.6904297,19.4371094 29.4181641,17.9892578 31.7513672,17.9892578 L34.1197266,17.9892578 L34.1197266,13.3667969 C34.1197266,13.3667969 31.9705078,13 29.915625,13 C25.6253906,13 22.8210938,15.6003906 22.8210938,20.3078125 L22.8210938,24.4457031 L18.0521484,24.4457031 L18.0521484,29.875 L22.8210938,29.875 L22.8210938,43 L28.6904297,43 L28.6904297,29.875 L33.0667969,29.875 Z" id="Path" fill="#FFFFFF" fill-rule="nonzero"></path>
            </g>
        </g>
    </g>
</svg>