<?xml version="1.0" encoding="UTF-8"?>
<svg width="30px" height="30px" viewBox="0 0 30 30" version="1.1" xmlns="http://www.w3.org/2000/svg" xmlns:xlink="http://www.w3.org/1999/xlink">
    <title>google</title>
    <g id="Sign-in" stroke="none" stroke-width="1" fill="none" fill-rule="evenodd">
        <g id="Sign-up-(mobile)" transform="translate(-50.000000, -640.000000)" fill-rule="nonzero">
            <g id="google" transform="translate(50.000000, 640.000000)">
                <path d="M29.3681319,15.3516484 C29.3681319,14.3351648 29.2857143,13.3131868 29.1098901,12.3131868 L15.0054945,12.3131868 L15.0054945,18.0714286 L23.0824176,18.0714286 C22.7472527,19.9285714 21.6703297,21.5714286 20.0934066,22.6153846 L20.0934066,26.3516484 L24.9120879,26.3516484 C27.7417582,23.7472527 29.3681319,19.9010989 29.3681319,15.3516484 Z" id="Path" fill="#4285F4"></path>
                <path d="M15.0054945,29.9615385 C19.0384615,29.9615385 22.4395604,28.6373626 24.9175824,26.3516484 L20.0989011,22.6153846 C18.7582418,23.5274725 17.0274725,24.043956 15.010989,24.043956 C11.1098901,24.043956 7.8021978,21.4120879 6.61538462,17.8736264 L1.64285714,17.8736264 L1.64285714,21.7252747 C4.18131868,26.7747253 9.35164835,29.9615385 15.0054945,29.9615385 Z" id="Path" fill="#34A853"></path>
                <path d="M6.60989011,17.8736264 C5.98351648,16.0164835 5.98351648,14.0054945 6.60989011,12.1483516 L6.60989011,8.2967033 L1.64285714,8.2967033 C-0.478021978,12.521978 -0.478021978,17.5 1.64285714,21.7252747 L6.60989011,17.8736264 Z" id="Path" fill="#FBBC04"></path>
                <path d="M15.0054945,5.97252747 C17.1373626,5.93956044 19.1978022,6.74175824 20.7417582,8.21428571 L20.7417582,8.21428571 L25.010989,3.94505495 C22.3076923,1.40659341 18.7197802,0.010989011 15.0054945,0.0549450549 C9.35164835,0.0549450549 4.18131868,3.24175824 1.64285714,8.2967033 L6.60989011,12.1483516 C7.79120879,8.6043956 11.1043956,5.97252747 15.0054945,5.97252747 Z" id="Path" fill="#EA4335"></path>
            </g>
        </g>
    </g>
</svg>