<?xml version="1.0" encoding="UTF-8"?>
<svg width="57px" height="59px" viewBox="0 0 57 59" version="1.1" xmlns="http://www.w3.org/2000/svg" xmlns:xlink="http://www.w3.org/1999/xlink">
    <title>linkedin</title>
    <g id="Sign-in" stroke="none" stroke-width="1" fill="none" fill-rule="evenodd">
        <g id="Sign-in-(desktop)" transform="translate(-1825.000000, -38.000000)">
            <g id="linkedin" transform="translate(1825.000000, 38.000000)">
                <rect id="Rectangle" fill="#00CC96" x="4" y="5" width="53" height="54"></rect>
                <path d="M2.69769817,0.885782852 C18.8662683,-0.329206028 35.0822739,-0.283310226 51.2982795,0.955876441 L50.0957006,0.866575165 C50.5272574,-0.0818645136 52.2712917,0.0740641167 52.2712917,1.33436106 L52.2712917,1.33436106 L52.2712917,54.8520857 C52.2712917,56.1892508 50.3080248,56.2832238 50.0320768,55.1340047 C33.6654068,53.9445054 17.248857,54.0479693 0.832307144,55.3024811 L2.2206441,55.2015251 C1.88545254,56.2789633 -1.70530257e-13,56.1624835 -1.70530257e-13,54.8520857 L-1.70530257e-13,54.8520857 L-1.70530257e-13,1.33436106 C-1.70530257e-13,0.0494455679 1.81283548,-0.0875349121 2.19935596,0.923419616 Z M49.9997487,3.1299624 C33.643347,1.94464496 17.2378271,2.04881218 0.832307144,3.30248106 L2.271,3.196 L2.27157117,52.918097 C17.9595069,51.7176623 33.6924969,51.7049452 49.4272047,52.8181929 L49.999,52.86 Z" id="Combined-Shape" fill="#041C3F"></path>
                <g id="Linkedin-In-Icon---Brands-_-Font-Awesome-34" transform="translate(11.000000, 13.000000)" fill="#FFFFFF" fill-rule="nonzero">
                    <path d="M6.71517857,30 L0.495535714,30 L0.495535714,9.97098214 L6.71517857,9.97098214 L6.71517857,30 Z M3.60200893,7.23883929 C1.61316964,7.23883929 0,5.59151786 0,3.60267857 C0,1.61334399 1.61267435,0.000669696532 3.60200893,0.000669696532 C5.59134351,0.000669696532 7.20401786,1.61334399 7.20401786,3.60267857 C7.20401786,5.59151786 5.59017857,7.23883929 3.60200893,7.23883929 Z M29.9933036,30 L23.7870536,30 L23.7870536,20.25 C23.7870536,17.9263393 23.7401786,14.9464286 20.5533482,14.9464286 C17.3196429,14.9464286 16.8241071,17.4709821 16.8241071,20.0825893 L16.8241071,30 L10.6111607,30 L10.6111607,9.97098214 L16.5763393,9.97098214 L16.5763393,12.703125 L16.6633929,12.703125 C17.49375,11.1294643 19.5220982,9.46875 22.5482143,9.46875 C28.8428571,9.46875 30,13.6138393 30,18.9977679 L30,30 L29.9933036,30 Z" id="Shape"></path>
                </g>
            </g>
        </g>
    </g>
</svg>