<svg width="29" height="38" viewBox="0 0 29 38" fill="none" xmlns="http://www.w3.org/2000/svg">
<path fill-rule="evenodd" clip-rule="evenodd" d="M13.5 7.37C18.4675 7.37 22.6154 11.0993 23.0651 15.9698L23.7539 23.4296C23.8144 24.0844 24.2147 24.6619 24.8121 24.956L24.8175 24.9586C26.1551 25.6171 27 26.963 27 28.4354V29.0156C27 30.9031 25.4458 32.4333 23.5286 32.4333H17.7429V33.1928C17.7429 35.4998 15.8433 37.37 13.5 37.37C11.1567 37.37 9.25714 35.4998 9.25714 33.1928V32.4333H3.47143C1.55421 32.4333 0 30.9031 0 29.0156V28.4354C0 26.963 0.844924 25.6171 2.18251 24.9586L2.18792 24.956C2.78531 24.6619 3.18562 24.0844 3.24609 23.4296L3.93491 15.9698C4.38464 11.0993 8.5325 7.37 13.5 7.37ZM11.5714 32.4333V33.1928C11.5714 34.2414 12.4349 35.0915 13.5 35.0915C14.5651 35.0915 15.4286 34.2414 15.4286 33.1928V32.4333H11.5714ZM13.5 9.64848C9.72946 9.64848 6.58106 12.4792 6.23969 16.1761L5.55087 23.6359C5.41784 25.0766 4.53715 26.3469 3.2229 26.9939C2.66395 27.269 2.31429 27.8261 2.31429 28.4354V29.0156C2.31429 29.6447 2.83236 30.1548 3.47143 30.1548H23.5286C24.1676 30.1548 24.6857 29.6447 24.6857 29.0156V28.4354C24.6857 27.8261 24.3361 27.269 23.7825 26.9966C22.4629 26.3469 21.5822 25.0766 21.4491 23.6359L20.7603 16.1761C20.4189 12.4792 17.2705 9.64848 13.5 9.64848Z" fill="#041C3F"/>
<circle cx="21.2" cy="7.2" r="7.2" fill="#FF3535"/>
<path d="M22.3322 6.21451C23.0498 6.33151 23.5997 6.60061 23.9819 7.02181C24.3641 7.43521 24.5552 7.95001 24.5552 8.56621C24.5552 9.04201 24.4304 9.48271 24.1808 9.88831C23.9312 10.2861 23.549 10.6059 23.0342 10.8477C22.5272 11.0895 21.9032 11.2104 21.1622 11.2104C20.585 11.2104 20.0156 11.1363 19.454 10.9881C18.9002 10.8321 18.4283 10.6137 18.0383 10.3329L18.7754 8.88211C19.0874 9.11611 19.4462 9.29941 19.8518 9.43201C20.2652 9.55681 20.6864 9.61921 21.1154 9.61921C21.5912 9.61921 21.9656 9.52951 22.2386 9.35011C22.5116 9.16291 22.6481 8.90161 22.6481 8.56621C22.6481 7.89541 22.1372 7.56001 21.1154 7.56001H20.2496V6.30811L21.9344 4.40101H18.4478V2.88001H24.1808V4.10851L22.3322 6.21451Z" fill="white"/>
</svg>
