<svg width="286" height="317" viewBox="0 0 286 317" fill="none" xmlns="http://www.w3.org/2000/svg">
<g clip-path="url(#clip0)">
<g filter="url(#filter0_d)">
<rect y="56" width="286" height="261" rx="5" fill="#00CC96"/>
</g>
<path d="M76.2712 259V239.4H83.5232C85.0912 239.4 86.3885 239.661 87.4152 240.184C88.4419 240.707 89.2072 241.425 89.7112 242.34C90.2152 243.255 90.4672 244.281 90.4672 245.42C90.4672 246.503 90.2245 247.501 89.7392 248.416C89.2539 249.312 88.4979 250.04 87.4712 250.6C86.4445 251.141 85.1285 251.412 83.5232 251.412H79.8552V259H76.2712ZM79.8552 248.5H83.2992C84.5499 248.5 85.4459 248.229 85.9872 247.688C86.5472 247.128 86.8272 246.372 86.8272 245.42C86.8272 244.449 86.5472 243.693 85.9872 243.152C85.4459 242.592 84.5499 242.312 83.2992 242.312H79.8552V248.5ZM93.195 259V245.112H96.387L96.723 247.716C97.227 246.82 97.9083 246.111 98.767 245.588C99.6443 245.047 100.671 244.776 101.847 244.776V248.556H100.839C100.055 248.556 99.355 248.677 98.739 248.92C98.123 249.163 97.6377 249.583 97.283 250.18C96.947 250.777 96.779 251.608 96.779 252.672V259H93.195ZM103.401 259V256.116L110.485 248.08H103.485V245.112H114.573V247.996L107.377 256.032H114.713V259H103.401ZM124.443 259.336C123.043 259.336 121.802 259.037 120.719 258.44C119.636 257.843 118.787 257.003 118.171 255.92C117.555 254.837 117.247 253.587 117.247 252.168C117.247 250.731 117.546 249.452 118.143 248.332C118.759 247.212 119.599 246.344 120.663 245.728C121.746 245.093 123.015 244.776 124.471 244.776C125.834 244.776 127.038 245.075 128.083 245.672C129.128 246.269 129.94 247.091 130.519 248.136C131.116 249.163 131.415 250.311 131.415 251.58C131.415 251.785 131.406 252 131.387 252.224C131.387 252.448 131.378 252.681 131.359 252.924H120.803C120.878 254.007 121.251 254.856 121.923 255.472C122.614 256.088 123.444 256.396 124.415 256.396C125.143 256.396 125.75 256.237 126.235 255.92C126.739 255.584 127.112 255.155 127.355 254.632H130.995C130.734 255.509 130.295 256.312 129.679 257.04C129.082 257.749 128.335 258.309 127.439 258.72C126.562 259.131 125.563 259.336 124.443 259.336ZM124.471 247.688C123.594 247.688 122.819 247.94 122.147 248.444C121.475 248.929 121.046 249.676 120.859 250.684H127.775C127.719 249.769 127.383 249.041 126.767 248.5C126.151 247.959 125.386 247.688 124.471 247.688ZM136.417 242.956C135.764 242.956 135.223 242.76 134.793 242.368C134.383 241.976 134.177 241.481 134.177 240.884C134.177 240.287 134.383 239.801 134.793 239.428C135.223 239.036 135.764 238.84 136.417 238.84C137.071 238.84 137.603 239.036 138.013 239.428C138.443 239.801 138.657 240.287 138.657 240.884C138.657 241.481 138.443 241.976 138.013 242.368C137.603 242.76 137.071 242.956 136.417 242.956ZM131.797 265.16V262.108H132.889C133.505 262.108 133.944 261.987 134.205 261.744C134.467 261.501 134.597 261.091 134.597 260.512V245.112H138.181V260.512C138.181 262.192 137.752 263.387 136.893 264.096C136.053 264.805 134.905 265.16 133.449 265.16H131.797ZM148.306 259.336C146.999 259.336 145.832 259.019 144.806 258.384C143.779 257.749 142.967 256.881 142.37 255.78C141.772 254.679 141.474 253.428 141.474 252.028C141.474 250.628 141.772 249.387 142.37 248.304C142.967 247.203 143.779 246.344 144.806 245.728C145.832 245.093 146.999 244.776 148.306 244.776C149.351 244.776 150.266 244.972 151.05 245.364C151.834 245.756 152.468 246.307 152.954 247.016V238.84H156.538V259H153.346L152.954 257.012C152.506 257.628 151.908 258.169 151.162 258.636C150.434 259.103 149.482 259.336 148.306 259.336ZM149.062 256.2C150.219 256.2 151.162 255.817 151.89 255.052C152.636 254.268 153.01 253.269 153.01 252.056C153.01 250.843 152.636 249.853 151.89 249.088C151.162 248.304 150.219 247.912 149.062 247.912C147.923 247.912 146.98 248.295 146.234 249.06C145.487 249.825 145.114 250.815 145.114 252.028C145.114 253.241 145.487 254.24 146.234 255.024C146.98 255.808 147.923 256.2 149.062 256.2ZM159.291 259V256.116L166.375 248.08H159.375V245.112H170.463V247.996L163.267 256.032H170.603V259H159.291ZM163.631 243.992V241.472L169.959 238.056V240.968L163.631 243.992ZM180.258 259V245.112H183.422L183.702 247.464C184.131 246.643 184.747 245.989 185.55 245.504C186.371 245.019 187.332 244.776 188.434 244.776C190.151 244.776 191.486 245.317 192.438 246.4C193.389 247.483 193.865 249.069 193.865 251.16V259H190.282V251.496C190.282 250.301 190.039 249.387 189.554 248.752C189.068 248.117 188.312 247.8 187.286 247.8C186.278 247.8 185.447 248.155 184.794 248.864C184.159 249.573 183.842 250.563 183.842 251.832V259H180.258ZM202.081 259.336C200.886 259.336 199.906 259.149 199.141 258.776C198.375 258.384 197.806 257.871 197.433 257.236C197.059 256.601 196.873 255.901 196.873 255.136C196.873 253.848 197.377 252.803 198.385 252C199.393 251.197 200.905 250.796 202.921 250.796H206.449V250.46C206.449 249.508 206.178 248.808 205.637 248.36C205.095 247.912 204.423 247.688 203.621 247.688C202.893 247.688 202.258 247.865 201.717 248.22C201.175 248.556 200.839 249.06 200.709 249.732H197.209C197.302 248.724 197.638 247.847 198.217 247.1C198.814 246.353 199.579 245.784 200.513 245.392C201.446 244.981 202.491 244.776 203.649 244.776C205.627 244.776 207.186 245.271 208.325 246.26C209.463 247.249 210.033 248.649 210.033 250.46V259H206.981L206.645 256.76C206.234 257.507 205.655 258.123 204.909 258.608C204.181 259.093 203.238 259.336 202.081 259.336ZM202.893 256.536C203.919 256.536 204.713 256.2 205.273 255.528C205.851 254.856 206.215 254.025 206.365 253.036H203.313C202.361 253.036 201.679 253.213 201.269 253.568C200.858 253.904 200.653 254.324 200.653 254.828C200.653 255.369 200.858 255.789 201.269 256.088C201.679 256.387 202.221 256.536 202.893 256.536ZM84.1325 289V269.4H91.3845C92.9525 269.4 94.2498 269.661 95.2765 270.184C96.3032 270.707 97.0685 271.425 97.5725 272.34C98.0765 273.255 98.3285 274.281 98.3285 275.42C98.3285 276.503 98.0859 277.501 97.6005 278.416C97.1152 279.312 96.3592 280.04 95.3325 280.6C94.3058 281.141 92.9898 281.412 91.3845 281.412H87.7165V289H84.1325ZM87.7165 278.5H91.1605C92.4112 278.5 93.3072 278.229 93.8485 277.688C94.4085 277.128 94.6885 276.372 94.6885 275.42C94.6885 274.449 94.4085 273.693 93.8485 273.152C93.3072 272.592 92.4112 272.312 91.1605 272.312H87.7165V278.5ZM101.056 289V275.112H104.248L104.584 277.716C105.088 276.82 105.77 276.111 106.628 275.588C107.506 275.047 108.532 274.776 109.708 274.776V278.556H108.7C107.916 278.556 107.216 278.677 106.6 278.92C105.984 279.163 105.499 279.583 105.144 280.18C104.808 280.777 104.64 281.608 104.64 282.672V289H101.056ZM118.66 289.336C117.26 289.336 116.018 289.037 114.936 288.44C113.853 287.843 113.004 287.003 112.388 285.92C111.772 284.837 111.464 283.587 111.464 282.168C111.464 280.731 111.762 279.452 112.36 278.332C112.976 277.212 113.816 276.344 114.88 275.728C115.962 275.093 117.232 274.776 118.688 274.776C120.05 274.776 121.254 275.075 122.3 275.672C123.345 276.269 124.157 277.091 124.736 278.136C125.333 279.163 125.632 280.311 125.632 281.58C125.632 281.785 125.622 282 125.604 282.224C125.604 282.448 125.594 282.681 125.576 282.924H115.02C115.094 284.007 115.468 284.856 116.14 285.472C116.83 286.088 117.661 286.396 118.632 286.396C119.36 286.396 119.966 286.237 120.452 285.92C120.956 285.584 121.329 285.155 121.572 284.632H125.212C124.95 285.509 124.512 286.312 123.896 287.04C123.298 287.749 122.552 288.309 121.656 288.72C120.778 289.131 119.78 289.336 118.66 289.336ZM118.688 277.688C117.81 277.688 117.036 277.94 116.364 278.444C115.692 278.929 115.262 279.676 115.076 280.684H121.992C121.936 279.769 121.6 279.041 120.984 278.5C120.368 277.959 119.602 277.688 118.688 277.688ZM128.646 289V275.112H131.81L132.118 276.988C132.566 276.316 133.154 275.784 133.882 275.392C134.629 274.981 135.488 274.776 136.458 274.776C138.605 274.776 140.126 275.607 141.022 277.268C141.526 276.503 142.198 275.896 143.038 275.448C143.897 275 144.83 274.776 145.838 274.776C147.649 274.776 149.04 275.317 150.01 276.4C150.981 277.483 151.466 279.069 151.466 281.16V289H147.882V281.496C147.882 280.301 147.649 279.387 147.182 278.752C146.734 278.117 146.034 277.8 145.082 277.8C144.112 277.8 143.328 278.155 142.73 278.864C142.152 279.573 141.862 280.563 141.862 281.832V289H138.278V281.496C138.278 280.301 138.045 279.387 137.578 278.752C137.112 278.117 136.393 277.8 135.422 277.8C134.47 277.8 133.696 278.155 133.098 278.864C132.52 279.573 132.23 280.563 132.23 281.832V289H128.646ZM156.801 272.956C156.147 272.956 155.606 272.76 155.177 272.368C154.766 271.976 154.561 271.481 154.561 270.884C154.561 270.287 154.766 269.801 155.177 269.428C155.606 269.036 156.147 268.84 156.801 268.84C157.454 268.84 157.986 269.036 158.397 269.428C158.826 269.801 159.041 270.287 159.041 270.884C159.041 271.481 158.826 271.976 158.397 272.368C157.986 272.76 157.454 272.956 156.801 272.956ZM155.009 289V275.112H158.593V289H155.009ZM175.718 275.112V289H172.554L172.274 286.648C171.844 287.469 171.219 288.123 170.398 288.608C169.595 289.093 168.643 289.336 167.542 289.336C165.824 289.336 164.49 288.795 163.538 287.712C162.586 286.629 162.11 285.043 162.11 282.952V275.112H165.694V282.616C165.694 283.811 165.936 284.725 166.422 285.36C166.907 285.995 167.663 286.312 168.69 286.312C169.698 286.312 170.519 285.957 171.154 285.248C171.807 284.539 172.134 283.549 172.134 282.28V275.112H175.718ZM179.369 289V275.112H182.533L182.841 276.988C183.289 276.316 183.877 275.784 184.605 275.392C185.351 274.981 186.21 274.776 187.181 274.776C189.327 274.776 190.849 275.607 191.745 277.268C192.249 276.503 192.921 275.896 193.761 275.448C194.619 275 195.553 274.776 196.561 274.776C198.371 274.776 199.762 275.317 200.733 276.4C201.703 277.483 202.189 279.069 202.189 281.16V289H198.605V281.496C198.605 280.301 198.371 279.387 197.905 278.752C197.457 278.117 196.757 277.8 195.805 277.8C194.834 277.8 194.05 278.155 193.453 278.864C192.874 279.573 192.585 280.563 192.585 281.832V289H189.001V281.496C189.001 280.301 188.767 279.387 188.301 278.752C187.834 278.117 187.115 277.8 186.145 277.8C185.193 277.8 184.418 278.155 183.821 278.864C183.242 279.573 182.953 280.563 182.953 281.832V289H179.369Z" fill="white"/>
<path fill-rule="evenodd" clip-rule="evenodd" d="M223.692 135.162C223.668 139.05 223.62 142.962 223.596 146.85C223.596 147.81 223.572 148.77 223.572 149.706C223.572 150.354 223.428 151.17 223.692 151.794C224.1 152.85 225.468 152.562 225.972 153.45C226.02 153.282 226.068 153.114 226.092 152.946C224.34 153.81 223.884 155.754 223.74 157.554C223.62 159.282 223.548 162.066 225.804 162.402C225.78 162.186 225.756 161.97 225.708 161.754C222.3 163.314 223.668 169.41 225.108 171.858C226.164 173.658 227.724 175.122 229.332 176.418C230.244 177.162 231.156 177.858 232.092 178.578C232.644 179.01 233.196 179.418 233.724 179.85C234.012 180.066 235.236 180.738 235.284 181.146C235.38 181.026 235.452 180.906 235.548 180.81C235.572 180.81 235.572 180.81 235.596 180.81C235.644 180.978 235.692 181.146 235.716 181.314C235.74 181.29 235.74 181.266 235.764 181.242C235.956 180.834 235.356 180.474 235.14 180.882C235.116 180.906 235.116 180.93 235.092 180.954C234.996 181.146 235.044 181.314 235.212 181.458C235.38 181.602 235.5 181.602 235.716 181.53C235.86 181.482 236.004 181.338 235.98 181.194C235.884 180.45 235.14 180.114 234.564 179.682C233.724 179.01 232.86 178.362 232.02 177.69C230.436 176.466 228.828 175.242 227.46 173.802C225.924 172.194 224.868 170.322 224.556 168.09C224.292 166.266 224.052 163.338 226.068 162.402C226.332 162.282 226.284 161.778 225.972 161.754C224.052 161.466 224.316 158.73 224.46 157.266C224.604 155.826 225.012 154.314 226.428 153.618C226.596 153.522 226.644 153.282 226.548 153.114C226.044 152.25 224.82 152.418 224.364 151.65C224.004 151.074 224.244 149.73 224.268 149.034C224.268 148.074 224.292 147.114 224.292 146.178C224.316 142.53 224.34 138.858 224.388 135.21C224.412 134.706 223.692 134.682 223.692 135.162Z" fill="#E8E8E8"/>
<path fill-rule="evenodd" clip-rule="evenodd" d="M224.076 135.354C227.436 135.522 229.788 138.09 231.804 140.49C232.764 141.642 233.772 142.722 234.756 143.802C235.764 144.882 237.084 147.066 235.26 148.122C234.948 148.314 235.092 148.794 235.452 148.794C238.236 148.866 239.46 152.25 240.324 154.386C241.356 156.978 242.172 159.642 242.772 162.354C243.996 167.922 244.236 173.658 243.54 179.298C243.492 179.754 244.212 179.754 244.26 179.298C245.004 173.01 244.62 166.626 243.06 160.506C242.34 157.626 241.38 154.722 240.084 152.034C239.172 150.114 237.756 148.122 235.452 148.074C235.524 148.29 235.572 148.53 235.644 148.746C239.148 146.73 234.804 142.89 233.388 141.234C230.868 138.306 228.324 134.826 224.1 134.61C223.62 134.61 223.62 135.33 224.076 135.354Z" fill="#E8E8E8"/>
<path fill-rule="evenodd" clip-rule="evenodd" d="M236.124 143.994C237.804 138.042 240.156 132.306 243.18 126.906C243.012 126.954 242.844 127.002 242.676 127.026C243.324 127.41 243.996 127.794 244.644 128.178C244.98 128.37 245.292 127.986 245.148 127.674C243.42 124.218 248.604 122.01 250.356 119.946C250.212 119.97 250.068 119.994 249.924 119.994C250.26 120.186 250.62 120.378 250.956 120.57C251.124 120.666 251.34 120.618 251.46 120.45C253.38 117.186 256.764 115.362 260.028 113.682C259.86 113.538 259.668 113.418 259.5 113.274C258.468 116.658 260.1 120.354 260.412 123.738C260.58 125.562 260.604 127.41 260.46 129.258C260.388 130.17 260.46 131.538 260.1 132.354C260.1 132.954 259.764 133.29 259.068 133.41C258.852 133.434 258.66 133.458 258.444 133.482C257.964 133.53 257.46 133.578 256.98 133.626C256.788 133.65 256.596 133.77 256.62 133.986C256.644 134.466 256.788 134.61 257.148 134.922C257.604 135.306 257.964 135.354 258.18 136.026C258.3 136.386 258.3 136.794 258.3 137.154C258.276 139.098 257.988 141.09 257.652 143.01C257.316 144.882 256.836 146.73 256.26 148.53C255.756 150.042 255.084 152.298 253.212 152.538C252.972 152.562 252.732 152.826 252.9 153.09C254.292 155.226 252.228 157.818 251.22 159.666C250.116 161.634 249.108 163.65 248.172 165.69C246.3 169.746 244.764 173.946 243.516 178.242C243.396 178.698 244.092 178.89 244.212 178.434C245.628 173.49 247.476 168.69 249.732 164.082C250.788 161.898 252.06 159.834 253.164 157.674C253.956 156.114 254.58 154.29 253.548 152.706C253.452 152.898 253.332 153.066 253.236 153.258C254.652 153.09 255.564 152.082 256.188 150.858C257.124 148.986 257.628 146.826 258.084 144.786C258.588 142.53 258.924 140.226 259.044 137.922C259.092 137.154 259.164 136.29 258.828 135.57C258.636 135.09 257.412 134.346 257.388 134.01C257.268 134.13 257.148 134.25 257.028 134.37C258.372 134.226 260.292 134.562 260.748 133.026C261.348 131.106 261.324 128.73 261.3 126.762C261.3 124.65 261.084 122.562 260.7 120.498C260.268 118.17 259.5 115.842 260.22 113.49C260.316 113.178 259.956 112.938 259.692 113.082C256.308 114.834 252.828 116.73 250.86 120.114C251.028 120.066 251.196 120.018 251.364 119.994C251.028 119.802 250.668 119.61 250.332 119.418C250.212 119.346 249.996 119.346 249.9 119.466C247.884 121.842 242.58 124.098 244.572 128.058C244.74 127.89 244.908 127.722 245.076 127.554C244.428 127.17 243.756 126.786 243.108 126.402C242.94 126.306 242.7 126.354 242.604 126.522C239.58 131.994 237.18 137.778 235.476 143.778C235.284 144.258 235.98 144.45 236.124 143.994Z" fill="#E8E8E8"/>
<path fill-rule="evenodd" clip-rule="evenodd" d="M219.156 119.466C215.124 119.754 212.988 115.026 213.66 111.618C214.308 108.282 217.572 105.93 220.908 106.026C225.3 106.122 227.556 110.418 226.764 114.426C226.068 118.002 222.468 120.642 218.868 119.226C218.436 119.058 218.244 119.754 218.676 119.922C221.556 121.05 224.916 119.73 226.5 117.114C228.18 114.33 227.988 110.346 226.044 107.754C224.076 105.114 220.308 104.754 217.452 106.026C214.596 107.274 212.724 110.082 212.796 113.202C212.868 116.61 215.388 120.45 219.132 120.186C219.612 120.162 219.636 119.442 219.156 119.466Z" fill="#E8E8E8"/>
<path fill-rule="evenodd" clip-rule="evenodd" d="M255.996 66.7381C254.604 69.3301 252.996 71.7781 251.172 74.0821C250.884 74.4421 251.388 74.9461 251.676 74.5861C253.548 72.2341 255.204 69.7381 256.62 67.0981C256.836 66.6901 256.212 66.3301 255.996 66.7381Z" fill="#E8E8E8"/>
<path fill-rule="evenodd" clip-rule="evenodd" d="M255.972 67.3141C256.836 69.5941 257.748 71.8741 258.684 74.1301C258.852 74.5621 259.548 74.3701 259.38 73.9381C258.444 71.6821 257.532 69.4021 256.668 67.1221C256.5 66.6901 255.804 66.8821 255.972 67.3141Z" fill="#E8E8E8"/>
<path fill-rule="evenodd" clip-rule="evenodd" d="M255.804 67.6501C255.636 76.5781 254.484 85.4581 252.348 94.1221C252.228 94.5781 252.924 94.7701 253.044 94.3141C255.204 85.5781 256.356 76.6501 256.524 67.6501C256.548 67.1701 255.828 67.1701 255.804 67.6501Z" fill="#E8E8E8"/>
<path fill-rule="evenodd" clip-rule="evenodd" d="M259.956 82.3141C260.58 87.4501 260.436 92.6341 259.5 97.7221C259.428 98.1781 260.1 98.3701 260.196 97.9141C261.132 92.7541 261.3 87.5221 260.676 82.3141C260.604 81.8581 259.884 81.8581 259.956 82.3141Z" fill="#E8E8E8"/>
<path fill-rule="evenodd" clip-rule="evenodd" d="M257.196 92.2981C258.036 94.2181 259.5 95.9701 259.596 98.1301C259.62 98.4901 260.076 98.6341 260.268 98.3221C261.108 96.8581 261.972 95.3941 262.812 93.9301C263.052 93.5221 262.428 93.1621 262.188 93.5701C261.348 95.0341 260.484 96.4981 259.644 97.9621C259.86 98.0341 260.1 98.0821 260.316 98.1541C260.22 95.8261 258.708 94.0261 257.82 91.9621C257.628 91.5061 257.004 91.8661 257.196 92.2981Z" fill="#E8E8E8"/>
<path fill-rule="evenodd" clip-rule="evenodd" d="M82.3805 189.474C97.2125 190.482 111.804 186.642 126.612 186.69C127.068 186.69 127.068 185.97 126.612 185.97C111.804 185.922 97.2125 189.738 82.3805 188.754C81.9245 188.706 81.9245 189.45 82.3805 189.474Z" fill="#E8E8E8"/>
<path fill-rule="evenodd" clip-rule="evenodd" d="M71.2684 114.882C71.3884 114.474 71.5084 114.066 71.7004 113.682C71.8204 113.514 71.9164 113.37 72.0364 113.202C72.5404 113.154 73.0684 113.082 73.5724 113.034C73.7164 113.13 73.8364 113.418 73.9324 113.562C74.2924 114.066 74.6764 114.498 75.2284 114.834C76.2844 115.458 77.5564 115.602 78.6844 115.17C81.6364 114.09 82.7404 110.178 86.3404 110.562C87.3004 110.658 88.2124 111.042 88.9084 111.714C89.4364 112.218 89.8444 112.842 90.3964 113.322C91.3804 114.138 92.6044 114.258 93.7804 113.826C95.2204 113.322 96.3244 112.242 97.4044 111.21C98.8684 109.842 101.004 108.186 102.948 109.65C104.22 110.586 104.964 112.026 106.548 112.53C108.036 113.01 109.62 112.722 110.868 111.786C111.228 111.522 110.868 110.874 110.508 111.162C108.78 112.458 106.62 112.242 105.108 110.73C104.1 109.746 103.236 108.522 101.748 108.354C98.2444 107.922 96.4204 112.194 93.4444 113.178C91.1884 113.922 90.4444 111.906 88.9564 110.802C87.8524 109.986 86.4604 109.65 85.0924 109.866C83.6524 110.082 82.5484 110.946 81.5404 111.93C80.3644 113.106 79.1164 114.714 77.2924 114.714C76.0684 114.714 75.1324 114.042 74.4604 113.082C74.0764 112.554 73.7644 112.122 73.0684 112.05C71.5564 111.906 70.9084 113.49 70.5484 114.666C70.4284 115.122 71.1244 115.314 71.2684 114.882Z" fill="#E8E8E8"/>
<path fill-rule="evenodd" clip-rule="evenodd" d="M108.276 102.474C109.14 99.9541 112.164 102.09 113.316 103.026C114.324 103.842 115.5 104.682 116.868 104.634C119.124 104.538 120.324 102.234 122.172 101.274C124.74 99.9541 126.3 103.386 128.796 103.05C129.9 102.906 130.476 102.018 131.172 101.25C131.916 100.434 132.684 100.434 133.74 100.674C134.724 100.914 135.732 101.154 136.716 101.394C137.172 101.514 137.364 100.818 136.908 100.698C135.924 100.458 134.916 100.218 133.932 99.9781C133.26 99.8101 132.588 99.6181 131.916 99.8101C130.596 100.218 130.212 101.97 128.892 102.282C127.476 102.618 126.084 101.034 124.86 100.53C123.828 100.098 122.82 100.098 121.836 100.626C120.78 101.178 119.988 102.114 119.052 102.858C118.428 103.362 117.732 103.818 116.916 103.866C115.668 103.938 114.636 103.074 113.724 102.354C112.62 101.49 111.444 100.458 109.932 100.578C108.852 100.65 107.964 101.226 107.604 102.258C107.436 102.714 108.132 102.906 108.276 102.474Z" fill="#E8E8E8"/>
<path fill-rule="evenodd" clip-rule="evenodd" d="M216.78 32.4421C216.564 36.9301 216.42 41.4421 216.372 45.9541C216.372 46.4101 217.092 46.4101 217.092 45.9541C217.14 41.4421 217.284 36.9541 217.5 32.4421C217.524 31.9861 216.804 31.9861 216.78 32.4421Z" fill="#E8E8E8"/>
<path fill-rule="evenodd" clip-rule="evenodd" d="M217.26 32.7781C222.804 32.0101 228.444 31.2661 233.964 32.5621C234.42 32.6581 234.612 31.9861 234.156 31.8661C228.516 30.5221 222.732 31.2901 217.068 32.0821C216.612 32.1301 216.804 32.8261 217.26 32.7781Z" fill="#E8E8E8"/>
<path fill-rule="evenodd" clip-rule="evenodd" d="M233.508 32.8021C233.628 41.9221 233.46 51.0661 232.98 60.1861C232.956 60.6421 233.676 60.6421 233.7 60.1861C234.18 51.0661 234.348 41.9461 234.228 32.8021C234.228 32.3461 233.508 32.3461 233.508 32.8021Z" fill="#E8E8E8"/>
<path fill-rule="evenodd" clip-rule="evenodd" d="M216.972 57.7381C217.092 58.8901 217.14 60.0901 217.356 61.2181C217.476 61.7701 217.668 62.1541 218.148 62.4901C219.66 63.4741 222.108 62.8981 223.764 62.8021C226.116 62.6581 228.492 62.5141 230.844 62.3701C231.9 62.2981 233.58 62.0101 232.932 60.5461C232.74 60.1141 232.116 60.4981 232.308 60.9061C232.428 61.1701 231.084 61.6021 230.844 61.6501C230.46 61.7221 230.052 61.6981 229.668 61.7221C228.972 61.7701 228.252 61.8181 227.556 61.8421C226.14 61.9381 224.724 62.0101 223.308 62.1061C222.012 62.1781 220.572 62.4421 219.276 62.1541C217.644 61.7701 217.86 59.1301 217.692 57.7621C217.644 57.2821 216.924 57.2821 216.972 57.7381Z" fill="#E8E8E8"/>
<path fill-rule="evenodd" clip-rule="evenodd" d="M212.604 56.8501C210.492 59.9461 208.308 62.9941 206.1 66.0181C206.028 66.1141 206.028 66.2821 206.1 66.3781C206.484 66.9781 207.132 67.2181 207.828 67.0021C208.86 66.6901 209.364 65.5141 209.892 64.6981C210.756 63.3541 211.74 62.0821 212.796 60.8581C213.252 60.3541 213.708 59.8501 214.188 59.3701C214.74 58.8181 215.676 57.6421 216.468 57.5221C216.924 57.4501 216.732 56.7541 216.276 56.8261C215.556 56.9461 215.076 57.5221 214.548 58.0021C213.852 58.6501 213.18 59.3221 212.532 60.0421C211.284 61.4341 210.132 62.9221 209.124 64.4821C208.836 64.9141 208.596 65.4421 208.236 65.8261C207.852 66.3781 207.444 66.4261 206.964 65.9701C207.108 65.7781 207.252 65.5861 207.372 65.3941C208.02 64.5061 208.668 63.6181 209.292 62.7301C210.612 60.8821 211.908 59.0341 213.18 57.1621C213.492 56.8261 212.868 56.4661 212.604 56.8501Z" fill="#E8E8E8"/>
<path fill-rule="evenodd" clip-rule="evenodd" d="M216.348 57.7381C219.324 57.8101 222.18 56.0101 223.356 53.2741C224.412 50.8021 223.836 47.5861 221.604 45.9541C219.036 44.1061 215.748 45.4981 213.756 47.5141C212.58 48.7141 211.596 50.2261 211.356 51.9061C211.26 52.5781 211.284 53.2501 211.452 53.8981C211.548 54.2821 211.692 54.6421 211.884 54.9781C211.932 55.0741 213.036 56.6341 212.556 56.6101C212.1 56.5621 212.1 57.2821 212.556 57.3301C213.3 57.4021 213.684 56.7301 213.468 56.0581C213.3 55.5061 212.772 55.1221 212.484 54.6181C212.052 53.8261 211.956 52.9141 212.076 52.0261C212.484 48.9541 215.748 45.7381 218.916 45.7861C222.036 45.8101 223.668 49.2901 223.02 52.0261C222.3 55.0021 219.372 57.0901 216.348 56.9941C215.868 57.0181 215.868 57.7381 216.348 57.7381Z" fill="#E8E8E8"/>
<path fill-rule="evenodd" clip-rule="evenodd" d="M219.756 35.3221L219.732 35.2981C219.732 35.4661 219.732 35.6341 219.732 35.8021C220.044 35.4421 222.204 35.4661 222.78 35.3941C223.692 35.2981 224.628 35.2261 225.54 35.1781C226.452 35.1301 227.388 35.0821 228.324 35.0581C228.732 35.0581 230.868 35.2501 231.012 34.8661C230.844 35.2981 231.54 35.4901 231.708 35.0581C231.732 35.0101 231.732 34.9861 231.756 34.9381C231.804 34.8181 231.756 34.6741 231.66 34.5781C231.132 34.0501 230.172 34.2901 229.476 34.2901C228.156 34.2901 226.86 34.3381 225.54 34.4341C224.316 34.5061 223.092 34.6261 221.844 34.7461C221.22 34.8181 219.66 34.7221 219.204 35.2501C219.084 35.3941 219.06 35.6101 219.204 35.7541L219.228 35.7781C219.588 36.1621 220.092 35.6341 219.756 35.3221Z" fill="#E8E8E8"/>
<path fill-rule="evenodd" clip-rule="evenodd" d="M219.42 38.8261C221.844 39.1621 224.196 39.0661 226.62 38.9701C227.076 38.9461 227.076 38.2261 226.62 38.2501C224.244 38.3461 221.964 38.4421 219.612 38.1301C219.156 38.0821 218.964 38.7781 219.42 38.8261Z" fill="#E8E8E8"/>
<path fill-rule="evenodd" clip-rule="evenodd" d="M217.788 41.5381C217.716 41.6101 217.644 41.7061 217.572 41.7781C217.356 42.0181 217.5 42.3781 217.836 42.4021C222.012 42.4741 226.188 42.2821 230.34 41.8261C230.796 41.7781 230.796 41.0581 230.34 41.1061C226.188 41.5621 222.012 41.7541 217.836 41.6821C217.932 41.8981 218.004 42.0901 218.1 42.3061C218.172 42.2341 218.244 42.1381 218.316 42.0661C218.604 41.7061 218.1 41.2021 217.788 41.5381Z" fill="#E8E8E8"/>
<path fill-rule="evenodd" clip-rule="evenodd" d="M222.948 45.4741C225.132 45.6421 227.316 45.5461 229.476 45.1861C229.932 45.1141 229.74 44.4181 229.284 44.4901C227.172 44.8261 225.06 44.9221 222.948 44.7541C222.468 44.7301 222.468 45.4501 222.948 45.4741Z" fill="#E8E8E8"/>
<path fill-rule="evenodd" clip-rule="evenodd" d="M217.092 55.1941C215.148 55.2901 213.492 53.5861 214.116 51.6181C214.596 50.0581 216.396 48.4021 218.028 48.1381C218.82 48.0181 219.684 48.2101 220.284 48.7621C221.172 49.5781 220.932 50.7781 220.524 51.7621C219.828 53.4901 218.556 55.0501 216.612 55.2661C216.156 55.3141 216.156 56.0341 216.612 55.9861C219.108 55.7221 220.884 53.5861 221.484 51.2341C222.06 49.0261 220.428 47.2021 218.148 47.3941C216.036 47.5861 213.708 49.7221 213.324 51.8101C212.916 54.1381 214.812 56.0341 217.092 55.9141C217.548 55.8901 217.548 55.1701 217.092 55.1941Z" fill="#E8E8E8"/>
<path fill-rule="evenodd" clip-rule="evenodd" d="M217.5 48.4501C216.54 50.5141 215.652 52.6021 214.86 54.7141C214.692 55.1461 215.388 55.3381 215.556 54.9061C216.348 52.8421 217.188 50.8021 218.124 48.8101C218.316 48.3781 217.716 48.0181 217.5 48.4501Z" fill="#E8E8E8"/>
<path fill-rule="evenodd" clip-rule="evenodd" d="M218.604 50.5141C217.98 51.8101 217.38 53.1061 216.756 54.4021C216.564 54.8101 217.188 55.1941 217.38 54.7621C218.004 53.4661 218.604 52.1701 219.228 50.8741C219.42 50.4661 218.82 50.0821 218.604 50.5141Z" fill="#E8E8E8"/>
<path fill-rule="evenodd" clip-rule="evenodd" d="M40.1884 11.3221C40.1884 13.5061 40.1884 15.7141 40.1884 17.8981C40.1884 18.3541 40.9084 18.3541 40.9084 17.8981C40.9084 15.7141 40.9084 13.5061 40.9084 11.3221C40.9084 10.8661 40.1884 10.8661 40.1884 11.3221Z" fill="#E8E8E8"/>
<path fill-rule="evenodd" clip-rule="evenodd" d="M40.6445 18.2101C42.6845 18.2101 44.7005 18.2101 46.7405 18.2101C47.1965 18.2101 47.1965 17.4901 46.7405 17.4901C44.7005 17.4901 42.6845 17.4901 40.6445 17.4901C40.1885 17.4901 40.1885 18.2101 40.6445 18.2101Z" fill="#E8E8E8"/>
<path fill-rule="evenodd" clip-rule="evenodd" d="M47.1725 17.4421C47.1725 15.0661 47.1725 12.6661 47.1725 10.2901C47.1725 9.83412 46.4525 9.83412 46.4525 10.2901C46.4525 12.6661 46.4525 15.0661 46.4525 17.4421C46.4525 17.8981 47.1725 17.8981 47.1725 17.4421Z" fill="#E8E8E8"/>
<path fill-rule="evenodd" clip-rule="evenodd" d="M46.9084 9.83411C44.8204 9.83411 42.7324 9.83411 40.6684 9.83411C40.2124 9.83411 40.2124 10.5541 40.6684 10.5541C42.7564 10.5541 44.8444 10.5541 46.9084 10.5541C47.3644 10.5541 47.3644 9.83411 46.9084 9.83411Z" fill="#E8E8E8"/>
<path fill-rule="evenodd" clip-rule="evenodd" d="M43.2365 18.5941C43.2365 21.0421 43.2365 23.4661 43.2365 25.9141C43.2365 26.3701 43.9565 26.3701 43.9565 25.9141C43.9565 23.4661 43.9565 21.0421 43.9565 18.5941C43.9565 18.1381 43.2365 18.1381 43.2365 18.5941Z" fill="#E8E8E8"/>
<path fill-rule="evenodd" clip-rule="evenodd" d="M34.7885 25.8181C37.4525 23.2741 40.2365 20.8261 43.1165 18.4981C43.4765 18.2101 42.9725 17.7061 42.6125 17.9941C39.7325 20.3221 36.9725 22.7461 34.2845 25.3141C33.9485 25.6261 34.4525 26.1301 34.7885 25.8181Z" fill="#E8E8E8"/>
<path fill-rule="evenodd" clip-rule="evenodd" d="M44.0045 18.7381C46.8845 20.9221 49.7645 23.1061 52.6445 25.2901C53.0045 25.5781 53.3645 24.9541 53.0045 24.6661C50.1245 22.4821 47.2445 20.2981 44.3645 18.1141C44.0045 17.8261 43.6445 18.4501 44.0045 18.7381Z" fill="#E8E8E8"/>
<path fill-rule="evenodd" clip-rule="evenodd" d="M32.0045 26.6821C33.5885 26.6821 35.1725 26.6821 36.7805 26.6821C37.2365 26.6821 37.2365 25.9621 36.7805 25.9621C35.1965 25.9621 33.6125 25.9621 32.0045 25.9621C31.5485 25.9621 31.5485 26.6821 32.0045 26.6821Z" fill="#E8E8E8"/>
<path fill-rule="evenodd" clip-rule="evenodd" d="M36.3484 26.8261C36.3484 28.6261 36.3484 30.4501 36.3484 32.2501C36.3484 32.7061 37.0684 32.7061 37.0684 32.2501C37.0684 30.4501 37.0684 28.6261 37.0684 26.8261C37.0684 26.3461 36.3484 26.3461 36.3484 26.8261Z" fill="#E8E8E8"/>
<path fill-rule="evenodd" clip-rule="evenodd" d="M31.4765 26.4901C31.4765 28.6021 31.4765 30.7141 31.4765 32.8261C31.4765 33.2821 32.1965 33.2821 32.1965 32.8261C32.1965 30.7141 32.1965 28.6021 32.1965 26.4901C32.1965 26.0101 31.4765 26.0101 31.4765 26.4901Z" fill="#E8E8E8"/>
<path fill-rule="evenodd" clip-rule="evenodd" d="M31.7645 33.2581C33.2525 33.2581 34.7165 33.2581 36.2045 33.2581C36.6605 33.2581 36.6605 32.5381 36.2045 32.5381C34.7165 32.5381 33.2525 32.5381 31.7645 32.5381C31.3085 32.5381 31.3085 33.2581 31.7645 33.2581Z" fill="#E8E8E8"/>
<path fill-rule="evenodd" clip-rule="evenodd" d="M41.0285 26.6581C41.0285 28.7461 41.0285 30.8341 41.0285 32.8981C41.0285 33.3541 41.7485 33.3541 41.7485 32.8981C41.7485 30.8101 41.7485 28.7221 41.7485 26.6581C41.7485 26.1781 41.0285 26.1781 41.0285 26.6581Z" fill="#E8E8E8"/>
<path fill-rule="evenodd" clip-rule="evenodd" d="M41.3884 33.0901C42.8524 33.0901 44.2924 33.0901 45.7564 33.0901C46.2124 33.0901 46.2124 32.3701 45.7564 32.3701C44.2924 32.3701 42.8524 32.3701 41.3884 32.3701C40.9324 32.3701 40.9324 33.0901 41.3884 33.0901Z" fill="#E8E8E8"/>
<path fill-rule="evenodd" clip-rule="evenodd" d="M41.6285 27.0181C42.9245 27.0181 44.1965 27.0181 45.4925 27.0181C45.9485 27.0181 45.9485 26.2981 45.4925 26.2981C44.1965 26.2981 42.9245 26.2981 41.6285 26.2981C41.1725 26.2981 41.1725 27.0181 41.6285 27.0181Z" fill="#E8E8E8"/>
<path fill-rule="evenodd" clip-rule="evenodd" d="M45.2285 26.5621C45.2285 28.5301 45.2285 30.4981 45.2285 32.4901C45.2285 32.9461 45.9485 32.9461 45.9485 32.4901C45.9485 30.5221 45.9485 28.5541 45.9485 26.5621C45.9485 26.1061 45.2285 26.1061 45.2285 26.5621Z" fill="#E8E8E8"/>
<path fill-rule="evenodd" clip-rule="evenodd" d="M51.2045 26.5621C51.1325 28.1221 51.0845 29.6821 51.0845 31.2421C51.0845 31.6981 51.8045 31.6981 51.8045 31.2421C51.8045 29.6821 51.8525 28.1221 51.9245 26.5621C51.9485 26.1061 51.2285 26.1061 51.2045 26.5621Z" fill="#E8E8E8"/>
<path fill-rule="evenodd" clip-rule="evenodd" d="M51.5165 26.7301C53.1005 26.5621 54.6845 26.3701 56.2685 26.2021C56.7245 26.1541 56.7245 25.4341 56.2685 25.4821C54.6845 25.6501 53.1005 25.8421 51.5165 26.0101C51.0605 26.0581 51.0365 26.7781 51.5165 26.7301Z" fill="#E8E8E8"/>
<path fill-rule="evenodd" clip-rule="evenodd" d="M56.0285 25.9861C55.8605 27.5941 55.9085 29.1781 56.1965 30.7621C56.2685 31.2181 56.9645 31.0261 56.8925 30.5701C56.6285 29.0341 56.5805 27.5221 56.7485 25.9861C56.7965 25.5301 56.0765 25.5301 56.0285 25.9861Z" fill="#E8E8E8"/>
<path fill-rule="evenodd" clip-rule="evenodd" d="M51.7564 31.8661C53.3404 31.6261 54.9244 31.3861 56.5084 31.1461C56.9644 31.0741 56.7724 30.3781 56.3164 30.4501C54.7324 30.6901 53.1484 30.9301 51.5644 31.1701C51.1084 31.2421 51.3004 31.9141 51.7564 31.8661Z" fill="#E8E8E8"/>
<path fill-rule="evenodd" clip-rule="evenodd" d="M43.1404 33.3061C42.2524 34.6501 41.4844 36.0661 40.7884 37.5061C40.5964 37.9141 41.2204 38.2981 41.4124 37.8661C42.1084 36.4021 42.9004 35.0101 43.7644 33.6661C44.0044 33.2821 43.3804 32.9221 43.1404 33.3061Z" fill="#E8E8E8"/>
<path fill-rule="evenodd" clip-rule="evenodd" d="M43.3564 33.5941C44.2444 34.7941 45.0124 36.0421 45.6604 37.3621C45.8764 37.7701 46.5004 37.4101 46.2844 37.0021C45.6124 35.6821 44.8444 34.4101 43.9804 33.2341C43.7164 32.8501 43.0924 33.2101 43.3564 33.5941Z" fill="#E8E8E8"/>
<path fill-rule="evenodd" clip-rule="evenodd" d="M39.4925 38.4421C39.9965 38.4421 40.5005 38.4421 41.0285 38.4661C41.2685 38.4661 41.4845 38.4901 41.7245 38.5141C42.1565 38.5381 42.1085 38.3941 42.1805 38.7781C42.3485 39.6901 42.1565 40.8661 42.0845 41.8021C42.0365 42.2581 42.7565 42.2581 42.8045 41.8021C42.8525 41.0821 42.9005 40.3381 42.9005 39.6181C42.9005 39.2101 43.0205 38.5381 42.8045 38.1541C42.5885 37.7941 42.0845 37.8421 41.7245 37.8181C40.9805 37.7701 40.2365 37.7461 39.4925 37.7461C39.0365 37.7221 39.0365 38.4421 39.4925 38.4421Z" fill="#E8E8E8"/>
<path fill-rule="evenodd" clip-rule="evenodd" d="M39.0125 38.4181C39.0845 39.2581 39.1565 40.0741 39.2285 40.9141C39.2765 41.5861 39.1805 42.5701 39.4445 43.2181C39.5405 43.4821 39.6605 43.5781 39.9245 43.6261C40.5485 43.7461 41.4845 43.4341 42.1085 43.3381C42.5645 43.2661 42.3725 42.5941 41.9165 42.6421C41.4845 42.6901 40.8125 42.9541 40.4045 42.8581C39.9485 42.7381 40.0445 42.1141 40.0205 41.6341C39.9245 40.5541 39.8285 39.4981 39.7325 38.4181C39.6845 37.9621 38.9645 37.9381 39.0125 38.4181Z" fill="#E8E8E8"/>
<path fill-rule="evenodd" clip-rule="evenodd" d="M44.4365 38.3221C44.3885 39.0181 44.3645 39.7381 44.3885 40.4341C44.3885 40.6021 44.6045 42.1861 44.5325 42.2341C44.6525 42.2101 44.7725 42.1621 44.8925 42.1381C44.8685 42.1381 44.8445 42.1141 44.7965 42.1141C44.8925 42.2341 44.9645 42.3541 45.0605 42.4501C45.0605 42.4261 45.0605 42.4021 45.0605 42.3541C44.9645 42.4741 44.8925 42.5941 44.7965 42.6901C44.8205 42.6901 44.8445 42.6901 44.8685 42.6661C45.3245 42.5701 45.1325 41.8741 44.6765 41.9701C44.6525 41.9701 44.6285 41.9701 44.6045 41.9941C44.4365 42.0181 44.3405 42.1861 44.3405 42.3301C44.3405 42.3541 44.3405 42.3781 44.3405 42.4261C44.3405 42.5701 44.4605 42.7381 44.6045 42.7621C45.2285 42.8821 45.2285 42.3061 45.2045 41.8501C45.1085 40.6501 45.0605 39.4741 45.1565 38.2501C45.1805 37.8421 44.4605 37.8661 44.4365 38.3221Z" fill="#E8E8E8"/>
<path fill-rule="evenodd" clip-rule="evenodd" d="M44.8685 38.4901C44.8685 38.3221 46.4045 38.2741 46.6205 38.2981C47.2205 38.3941 47.1005 38.4421 47.1965 38.8741C47.2685 39.1621 47.1725 39.5701 47.1485 39.8581C47.1245 40.4581 47.1245 41.0341 47.1485 41.6341C47.1485 41.9701 47.3885 42.9781 47.2205 43.2181C47.3885 43.1701 47.5565 43.1221 47.7245 43.0981C47.7005 43.0981 47.6765 43.0741 47.6525 43.0741C47.7005 43.2181 47.7725 43.3381 47.8205 43.4821C47.8205 43.4581 47.8445 43.4341 47.8445 43.4101C47.9645 42.9541 47.2685 42.7621 47.1485 43.2181C47.1485 43.2421 47.1245 43.2661 47.1245 43.2901C47.0765 43.4341 47.1485 43.6261 47.2925 43.6981C47.3165 43.6981 47.3405 43.7221 47.3645 43.7221C47.5565 43.7941 47.7485 43.7701 47.8685 43.6021C48.0365 43.3621 47.9645 43.1221 47.9405 42.8341C47.9165 42.1861 47.8685 41.5141 47.8685 40.8661C47.8685 40.2181 47.8925 39.5461 47.9165 38.8981C47.9405 38.6101 48.0125 38.2261 47.8205 37.9621C47.4125 37.4101 46.1165 37.5781 45.5885 37.6501C44.9885 37.7221 44.1965 37.7941 44.1485 38.5141C44.1485 38.9461 44.8685 38.9461 44.8685 38.4901Z" fill="#E8E8E8"/>
<path fill-rule="evenodd" clip-rule="evenodd" d="M44.9405 43.3621C45.6605 43.3141 46.3805 43.3861 47.0765 43.5541C47.5325 43.6741 47.7245 42.9781 47.2685 42.8581C46.5005 42.6421 45.7325 42.5701 44.9405 42.6181C44.4605 42.6661 44.4605 43.3861 44.9405 43.3621Z" fill="#E8E8E8"/>
<path fill-rule="evenodd" clip-rule="evenodd" d="M53.9645 32.0101C53.3885 33.2821 52.8845 34.6021 52.4285 35.9221C52.2845 36.3541 52.9805 36.5461 53.1245 36.1141C53.5565 34.8421 54.0365 33.5941 54.5885 32.3701C54.7805 31.9381 54.1565 31.5781 53.9645 32.0101Z" fill="#E8E8E8"/>
<path fill-rule="evenodd" clip-rule="evenodd" d="M50.2925 37.6981C51.4925 37.3621 52.7165 37.1941 53.9885 37.2421C54.4445 37.2661 54.4445 36.5461 53.9885 36.5221C52.6685 36.4741 51.3725 36.6421 50.1005 37.0021C49.6445 37.1221 49.8365 37.8181 50.2925 37.6981Z" fill="#E8E8E8"/>
<path fill-rule="evenodd" clip-rule="evenodd" d="M50.2684 37.3621C50.0524 38.0341 50.2204 38.6581 50.2924 39.3301C50.3644 40.1461 50.3644 40.9381 50.3404 41.7541C50.2924 42.8101 50.5564 42.9301 51.6124 42.8341C52.3324 42.7621 53.3164 42.9541 53.5804 42.1621C53.8204 41.3941 53.7484 40.3621 53.8204 39.5461C53.8924 38.6821 53.9884 37.7941 54.0604 36.9301C54.1084 36.4741 53.3884 36.4741 53.3404 36.9301C53.2444 37.9381 53.1484 38.9701 53.0524 39.9781C53.0044 40.3861 53.0284 40.8901 52.9324 41.2981C52.7884 41.9701 52.7164 42.0181 52.0204 42.0901C51.8044 42.1141 51.6124 42.1381 51.3964 42.1621C50.9884 42.3061 50.8684 42.1861 51.0364 41.7781C50.9404 41.4421 51.0844 40.9141 51.0604 40.5541C51.0364 39.6421 50.6764 38.4181 50.9404 37.5541C51.1084 37.0981 50.4124 36.9061 50.2684 37.3621Z" fill="#E8E8E8"/>
<path fill-rule="evenodd" clip-rule="evenodd" d="M54.9724 32.6821C55.5244 33.5221 56.0044 34.4101 56.4604 35.3221C56.6524 35.7301 57.2764 35.3701 57.0844 34.9621C56.6524 34.0501 56.1484 33.1861 55.5964 32.3221C55.3324 31.9141 54.7084 32.2741 54.9724 32.6821Z" fill="#E8E8E8"/>
<path fill-rule="evenodd" clip-rule="evenodd" d="M55.7885 36.3781C56.9885 36.3781 58.1885 36.3781 59.3885 36.3781C59.8445 36.3781 59.8445 35.6581 59.3885 35.6581C59.3165 35.6581 59.2445 35.6581 59.1725 35.6581C58.7165 35.6581 58.7165 36.3781 59.1725 36.3781C59.2445 36.3781 59.3165 36.3781 59.3885 36.3781C59.8445 36.3781 59.8445 35.6581 59.3885 35.6581C58.1885 35.6581 56.9885 35.6581 55.7885 35.6581C55.3085 35.6581 55.3085 36.3781 55.7885 36.3781Z" fill="#E8E8E8"/>
<path fill-rule="evenodd" clip-rule="evenodd" d="M55.4285 36.3541C55.5245 37.2661 55.5965 38.1781 55.6205 39.0901C55.6445 39.7381 55.4285 40.8421 55.7165 41.4421C55.8845 41.8021 56.1005 41.8501 56.4845 41.8501C57.3725 41.8261 58.3325 41.6101 59.2205 41.4901C59.3645 41.4661 59.4845 41.2741 59.4845 41.1541C59.4605 39.5221 59.4365 37.9141 59.4125 36.2821C59.4125 35.8261 58.6925 35.8261 58.6925 36.2821C58.7165 37.9141 58.7405 39.5221 58.7645 41.1541C58.8605 41.0341 58.9325 40.9141 59.0285 40.8181C58.4525 40.8901 57.8765 40.9621 57.3005 41.0581C57.1085 41.0821 56.5565 41.2501 56.3885 41.1061C56.2685 41.0101 56.3885 40.2661 56.3885 40.1221C56.3645 38.8741 56.2925 37.6261 56.1725 36.4021C56.1005 35.8981 55.3805 35.8981 55.4285 36.3541Z" fill="#E8E8E8"/>
<path fill-rule="evenodd" clip-rule="evenodd" d="M28.7885 38.3221C30.0365 37.1701 31.3085 36.0901 32.6765 35.1061C33.0365 34.8421 32.6765 34.2181 32.3165 34.4821C30.9005 35.5141 29.5565 36.6181 28.2845 37.8181C27.9485 38.1301 28.4525 38.6341 28.7885 38.3221Z" fill="#E8E8E8"/>
<path fill-rule="evenodd" clip-rule="evenodd" d="M32.4605 34.7941C33.1805 35.8261 33.7805 36.9061 34.2605 38.0341C34.4525 38.4661 35.0765 38.0821 34.8845 37.6741C34.3805 36.5221 33.7805 35.4421 33.0845 34.4341C32.8205 34.0501 32.1965 34.4101 32.4605 34.7941Z" fill="#E8E8E8"/>
<path fill-rule="evenodd" clip-rule="evenodd" d="M25.5965 39.6421C26.2445 39.5941 26.8685 39.5461 27.5165 39.4981C27.8045 39.4741 28.1165 39.4021 28.3805 39.4261C28.7165 39.3061 28.8125 39.3301 28.6685 39.5221C28.5725 39.6661 28.5245 39.8101 28.5485 39.9781C28.2845 41.1541 28.2365 42.4021 28.1885 43.6021C28.4045 43.5061 28.5965 43.4341 28.8125 43.3381C28.7885 43.3141 28.7645 43.2901 28.7405 43.2421C28.4285 42.9061 27.9245 43.4101 28.2365 43.7461C28.2605 43.7701 28.2845 43.7941 28.3085 43.8421C28.5245 44.0821 28.9085 43.8901 28.9325 43.5781C28.9565 42.5461 29.0525 41.5141 29.1965 40.5061C29.2685 40.0741 29.5805 39.3541 29.3165 38.9221C29.1005 38.5861 28.7405 38.6581 28.4045 38.6821C27.4685 38.7541 26.5565 38.8261 25.6205 38.8981C25.1405 38.9701 25.1405 39.6901 25.5965 39.6421Z" fill="#E8E8E8"/>
<path fill-rule="evenodd" clip-rule="evenodd" d="M26.0764 38.9461C26.0524 38.9461 26.0284 38.9461 25.9804 38.9461C25.8604 38.9461 25.7404 39.0181 25.6684 39.1141C25.2844 39.7621 25.3084 40.8901 25.1884 41.6341C25.0204 42.6901 24.8524 43.7461 24.6844 44.8021C24.6604 44.9941 24.7324 45.2101 24.9244 45.2341C26.0524 45.4741 27.1084 45.4261 28.1884 45.0181C28.6204 44.8501 28.4284 44.1541 27.9964 44.3221C27.0364 44.6821 26.1244 44.7541 25.1164 44.5381C25.1884 44.6821 25.2844 44.8261 25.3564 44.9701C25.4284 44.4901 26.2684 39.6661 26.0284 39.6421C26.5324 39.7141 26.5324 38.9941 26.0764 38.9461Z" fill="#E8E8E8"/>
<path fill-rule="evenodd" clip-rule="evenodd" d="M32.6044 38.8261L32.5804 38.8501C32.7484 38.8501 32.9164 38.8501 33.0844 38.8501C33.0604 38.8501 33.0604 38.8261 33.0364 38.8261C33.0364 38.9941 33.0364 39.1621 33.0364 39.3301C33.0604 39.3061 33.4924 39.3061 33.5884 39.3061C33.8524 39.2821 34.1404 39.2581 34.4044 39.2581C34.9084 39.2341 35.4124 39.2581 35.9164 39.3061C35.8204 39.0901 35.7484 38.8981 35.6524 38.6821C35.6044 38.7061 35.5564 38.7541 35.5324 38.7781C35.0764 38.8261 35.0764 39.5461 35.5324 39.4981C35.7964 39.4741 35.9884 39.4021 36.1804 39.1861C36.3964 38.9461 36.2524 38.5861 35.9164 38.5621C35.2204 38.5141 34.5244 38.4901 33.8284 38.5381C33.4924 38.5621 32.7964 38.4901 32.5564 38.8021C32.4364 38.9461 32.3884 39.1861 32.5564 39.3061C32.5804 39.3061 32.5804 39.3301 32.6044 39.3301C32.7484 39.4501 32.9884 39.4981 33.1084 39.3301L33.1324 39.3061C33.4204 38.9941 32.9164 38.4901 32.6044 38.8261Z" fill="#E8E8E8"/>
<path fill-rule="evenodd" clip-rule="evenodd" d="M32.3164 38.9941C32.2444 39.9781 32.1724 40.9621 32.1244 41.9461C32.1004 42.4981 31.7884 43.9141 32.1244 44.4181C32.2924 44.6581 32.4604 44.7541 32.7724 44.7301C33.0844 44.7301 33.4204 44.5141 33.7084 44.4421C34.2844 44.2741 34.8844 44.2261 35.4844 44.2261C35.9404 44.2261 35.9404 43.5061 35.4844 43.5061C34.9564 43.5061 34.4284 43.5541 33.9004 43.6741C33.6604 43.7221 33.2044 43.9861 32.9884 43.9381C32.8204 44.0581 32.7484 44.0341 32.7964 43.8421C32.7724 43.6501 32.7724 43.4581 32.7964 43.2421C32.8204 41.8501 32.9404 40.4341 33.0364 39.0421C33.0844 38.5141 32.3644 38.5141 32.3164 38.9941Z" fill="#E8E8E8"/>
<path fill-rule="evenodd" clip-rule="evenodd" d="M35.4125 39.0661C35.2205 40.6741 35.1245 42.2821 35.1485 43.9141C35.1485 44.3701 35.8685 44.3701 35.8685 43.9141C35.8445 42.2821 35.9405 40.6741 36.1325 39.0661C36.2045 38.6101 35.4845 38.6101 35.4125 39.0661Z" fill="#E8E8E8"/>
<path fill-rule="evenodd" clip-rule="evenodd" d="M227.124 139.746C232.788 152.202 236.748 165.354 238.932 178.866C239.004 179.322 239.7 179.13 239.628 178.674C237.42 165.114 233.436 151.89 227.748 139.386C227.556 138.978 226.932 139.338 227.124 139.746Z" fill="#E8E8E8"/>
<path fill-rule="evenodd" clip-rule="evenodd" d="M257.004 118.674C249.996 129.378 243.9 140.658 239.58 152.73C239.412 153.162 240.108 153.354 240.276 152.922C244.572 140.898 250.644 129.69 257.628 119.034C257.868 118.65 257.244 118.29 257.004 118.674Z" fill="#E8E8E8"/>
<path fill-rule="evenodd" clip-rule="evenodd" d="M224.676 152.898C228.564 153.954 231.9 156.354 234.132 159.714C234.396 160.098 235.02 159.738 234.756 159.354C232.428 155.85 228.948 153.306 224.868 152.202C224.412 152.082 224.22 152.778 224.676 152.898Z" fill="#E8E8E8"/>
<path fill-rule="evenodd" clip-rule="evenodd" d="M234.036 142.938C232.716 145.122 231.828 147.498 231.468 150.042C231.396 150.498 232.092 150.69 232.164 150.234C232.524 147.762 233.364 145.434 234.66 143.298C234.9 142.914 234.276 142.554 234.036 142.938Z" fill="#E8E8E8"/>
<path fill-rule="evenodd" clip-rule="evenodd" d="M241.5 129.45C242.676 130.746 243.492 132.234 244.116 133.842C244.404 134.562 244.644 135.306 244.86 136.026C245.076 136.722 245.58 137.754 245.292 138.45C245.124 138.882 245.82 139.074 245.988 138.642C246.276 137.946 245.988 137.25 245.772 136.578C245.484 135.594 245.172 134.61 244.788 133.65C244.116 131.922 243.228 130.314 241.98 128.922C241.692 128.586 241.188 129.09 241.5 129.45Z" fill="#E8E8E8"/>
<path fill-rule="evenodd" clip-rule="evenodd" d="M249.636 132.21C252.636 128.754 256.524 126.306 260.94 125.106C261.396 124.986 261.204 124.29 260.748 124.41C256.236 125.634 252.204 128.154 249.132 131.682C248.844 132.042 249.348 132.57 249.636 132.21Z" fill="#E8E8E8"/>
<path fill-rule="evenodd" clip-rule="evenodd" d="M241.164 151.482C243.324 149.562 245.868 148.218 248.556 147.21C249.78 146.754 251.004 146.394 252.252 146.034C252.948 145.842 253.62 145.674 254.316 145.482C254.652 145.41 256.068 144.834 256.332 144.978C256.284 144.81 256.236 144.642 256.212 144.474C256.188 144.498 256.188 144.522 256.164 144.546C256.332 144.498 256.5 144.45 256.668 144.426C256.644 144.426 256.62 144.402 256.596 144.402C256.188 144.186 255.828 144.81 256.236 145.026C256.26 145.026 256.284 145.05 256.308 145.05C256.476 145.146 256.692 145.098 256.812 144.93C256.836 144.906 256.836 144.882 256.86 144.858C256.956 144.69 256.908 144.474 256.74 144.354C256.404 144.162 256.044 144.33 255.684 144.402C254.868 144.594 254.052 144.786 253.236 145.002C251.676 145.41 250.116 145.866 248.58 146.394C245.7 147.426 242.964 148.842 240.684 150.906C240.324 151.266 240.828 151.794 241.164 151.482Z" fill="#E8E8E8"/>
<path fill-rule="evenodd" clip-rule="evenodd" d="M228.924 181.098C234.372 182.418 239.916 181.434 245.364 180.786C251.268 180.09 257.196 179.97 263.124 179.874C263.58 179.874 263.58 179.154 263.124 179.154C257.34 179.25 251.556 179.37 245.82 180.018C240.276 180.666 234.636 181.746 229.116 180.402C228.684 180.282 228.492 180.978 228.924 181.098Z" fill="#E8E8E8"/>
<path fill-rule="evenodd" clip-rule="evenodd" d="M246.108 179.058C255.804 178.554 265.5 178.026 275.196 177.522C275.652 177.498 275.652 176.778 275.196 176.802C265.5 177.306 255.804 177.834 246.108 178.338C245.652 178.362 245.652 179.082 246.108 179.058Z" fill="#E8E8E8"/>
<path fill-rule="evenodd" clip-rule="evenodd" d="M218.34 109.77C215.964 110.226 213.06 107.946 213.132 105.426C213.228 102.57 216.804 101.61 219.084 101.586C221.604 101.586 223.38 103.53 222.78 106.074C222.516 107.178 221.82 108.09 220.956 108.786C220.452 109.194 218.412 110.682 217.836 109.962C217.548 109.602 217.044 110.106 217.332 110.466C218.1 111.426 219.684 110.442 220.5 109.986C221.748 109.242 222.876 108.114 223.356 106.722C224.316 103.914 222.612 101.106 219.66 100.89C216.852 100.674 212.508 101.97 212.436 105.426C212.388 108.45 215.7 110.994 218.556 110.466C218.988 110.394 218.796 109.698 218.34 109.77Z" fill="#E8E8E8"/>
<path fill-rule="evenodd" clip-rule="evenodd" d="M34.1165 121.074C33.2285 122.082 32.4605 123.186 31.8125 124.386C31.5965 124.794 32.2205 125.154 32.4365 124.746C33.0605 123.618 33.7805 122.562 34.6445 121.578C34.9325 121.242 34.4285 120.714 34.1165 121.074Z" fill="#161616"/>
<path fill-rule="evenodd" clip-rule="evenodd" d="M34.0925 121.362C34.8125 122.37 35.5325 123.354 36.2525 124.362C36.5165 124.746 37.1405 124.386 36.8765 124.002C36.1565 122.994 35.4365 122.01 34.7165 121.002C34.4285 120.618 33.8045 120.978 34.0925 121.362Z" fill="#161616"/>
<path fill-rule="evenodd" clip-rule="evenodd" d="M34.0445 122.778C34.2605 131.25 34.4525 139.722 34.6685 148.218C34.6685 148.674 35.3885 148.674 35.3885 148.218C35.1725 139.746 34.9805 131.274 34.7645 122.778C34.7405 122.322 34.0205 122.298 34.0445 122.778Z" fill="#161616"/>
<path fill-rule="evenodd" clip-rule="evenodd" d="M35.4605 148.89C46.1165 148.89 56.7725 148.89 67.4285 148.89C67.8845 148.89 67.8845 148.17 67.4285 148.17C56.7725 148.17 46.1165 148.17 35.4605 148.17C35.0045 148.17 35.0045 148.89 35.4605 148.89Z" fill="#161616"/>
<path fill-rule="evenodd" clip-rule="evenodd" d="M66.0365 148.17C66.7805 148.458 67.5005 148.746 68.2445 149.034C68.1485 148.77 68.0285 148.506 67.9325 148.242C67.5725 148.89 67.0685 149.394 66.4445 149.778C65.8445 150.138 66.3965 151.074 66.9965 150.714C67.7885 150.258 68.4365 149.586 68.8925 148.794C69.0845 148.458 68.8925 148.122 68.5805 148.002C67.8365 147.714 67.1165 147.426 66.3725 147.138C65.6765 146.874 65.3885 147.906 66.0365 148.17Z" fill="#161616"/>
<path fill-rule="evenodd" clip-rule="evenodd" d="M250.356 18.5461C249.396 17.2741 250.764 15.3301 252.252 16.2901C252.924 16.7221 253.236 17.6101 252.756 18.3061C252.324 18.9301 251.436 19.1941 250.764 18.8581C250.356 18.6421 249.996 19.2661 250.404 19.4821C251.388 19.9621 252.588 19.6741 253.284 18.8101C254.028 17.8741 253.764 16.5541 252.852 15.8341C251.964 15.1381 250.716 15.1381 249.948 16.0021C249.252 16.7941 249.132 18.0661 249.78 18.9301C249.996 19.2661 250.62 18.9061 250.356 18.5461Z" fill="#00CC96"/>
<path fill-rule="evenodd" clip-rule="evenodd" d="M270.324 109.818C270.276 108.69 271.116 107.922 272.22 107.922C272.676 107.922 273.036 108.042 273.468 107.85C274.284 107.49 274.596 106.554 274.86 105.762C275.244 104.61 275.532 104.058 276.972 104.418C277.356 104.514 277.596 104.706 278.004 104.562C279.204 104.106 278.484 102.042 280.308 102.378C280.764 102.474 280.956 101.778 280.5 101.682C279.924 101.562 279.372 101.61 278.868 101.97C278.412 102.306 278.364 102.714 278.1 103.146C278.076 103.602 277.764 103.794 277.188 103.722C277.068 103.65 276.924 103.578 276.804 103.53C276.54 103.506 276.396 103.362 276.108 103.386C275.58 103.41 275.172 103.746 274.86 104.13C274.404 104.682 274.284 105.354 274.02 106.026C273.756 106.698 273.492 107.178 272.676 107.25C272.316 107.274 271.98 107.154 271.62 107.202C270.348 107.394 269.532 108.57 269.58 109.818C269.628 110.298 270.348 110.298 270.324 109.818Z" fill="#00B585"/>
<path fill-rule="evenodd" clip-rule="evenodd" d="M42.6365 147.522C46.0205 140.73 46.5485 133.074 48.5405 125.85C49.0445 124.002 49.5485 121.842 50.9405 120.45C52.9805 118.41 55.5725 119.85 56.4125 122.25C57.0365 124.074 57.0605 126.186 57.1805 128.106C57.3005 130.17 57.3965 132.234 57.5165 134.298C57.7805 138.714 58.2365 143.154 59.7245 147.354C59.8685 147.786 60.5645 147.594 60.4205 147.162C58.8605 142.746 58.4285 138.066 58.1885 133.41C58.0685 131.13 57.9725 128.826 57.8045 126.546C57.6605 124.722 57.5885 122.73 56.7245 121.074C56.0525 119.778 54.7565 118.722 53.2445 118.722C51.6845 118.722 50.3885 119.802 49.5965 121.05C48.5645 122.706 48.0845 124.794 47.6045 126.666C47.0765 128.754 46.6445 130.866 46.2125 132.978C45.2525 137.826 44.2685 142.698 42.0365 147.162C41.7965 147.57 42.4205 147.93 42.6365 147.522Z" fill="#17B78D"/>
<path fill-rule="evenodd" clip-rule="evenodd" d="M45.9245 117.762C45.4445 117.066 46.4285 116.13 47.0045 116.898C47.5565 117.618 46.5245 118.338 45.9485 117.786C45.6125 117.474 45.1085 117.978 45.4445 118.29C45.9485 118.77 46.7645 118.818 47.3405 118.41C47.9885 117.954 48.0605 117.09 47.5805 116.466C47.1005 115.842 46.2125 115.674 45.6125 116.202C45.0845 116.682 44.9165 117.522 45.3245 118.122C45.5645 118.506 46.1885 118.146 45.9245 117.762Z" fill="#17B78D"/>
<path fill-rule="evenodd" clip-rule="evenodd" d="M51.2285 114.57C50.8445 114.018 51.6845 113.514 52.0445 114.09C52.4285 114.714 51.3485 115.41 50.9885 114.714C50.7725 114.306 50.1725 114.666 50.3645 115.074C50.6765 115.722 51.5165 115.89 52.1165 115.53C52.7405 115.17 53.0285 114.354 52.6445 113.706C52.3085 113.154 51.5165 112.866 50.9405 113.226C50.3885 113.586 50.1965 114.354 50.5565 114.906C50.8685 115.314 51.4925 114.954 51.2285 114.57Z" fill="#17B78D"/>
<path fill-rule="evenodd" clip-rule="evenodd" d="M49.1404 109.29C48.9484 108.738 49.5484 108.162 50.0284 108.618C50.5084 109.074 49.9564 109.722 49.4044 109.53C48.9724 109.386 48.7804 110.082 49.2124 110.226C50.4604 110.634 51.5164 109.05 50.5324 108.114C50.1004 107.682 49.4284 107.61 48.9244 107.97C48.4684 108.306 48.2284 108.93 48.4444 109.482C48.6124 109.914 49.3084 109.746 49.1404 109.29Z" fill="#17B78D"/>
<path fill-rule="evenodd" clip-rule="evenodd" d="M58.3085 115.698C58.2365 115.65 58.3325 115.722 58.3565 115.77C58.3565 115.794 58.3565 115.818 58.3565 115.842C58.3565 115.866 58.3565 115.866 58.3565 115.818V115.842C58.4045 115.818 58.3565 115.842 58.3565 115.842C58.3325 115.842 58.4285 115.842 58.4525 115.842C58.5245 115.842 58.5965 115.866 58.6685 115.89C58.5725 115.77 58.5005 115.65 58.4045 115.554C58.4045 115.746 58.4045 115.938 58.4045 116.13C58.5005 116.01 58.5725 115.89 58.6685 115.794C58.4765 115.866 58.2845 115.89 58.0925 115.842C57.6605 115.698 57.4685 116.394 57.9005 116.538C58.2125 116.634 58.5725 116.634 58.8605 116.49C59.0045 116.418 59.1245 116.322 59.1245 116.154C59.1245 115.962 59.1245 115.77 59.1245 115.578C59.1245 115.41 59.0045 115.266 58.8605 115.242C58.4765 115.146 58.0205 115.098 57.7805 115.482C57.5885 115.77 57.6125 116.226 57.9725 116.37C58.1405 116.466 58.3565 116.418 58.4765 116.25C58.5485 116.034 58.5005 115.794 58.3085 115.698Z" fill="#17B78D"/>
<path fill-rule="evenodd" clip-rule="evenodd" d="M98.3885 20.1541C98.5085 20.2021 98.2445 21.4021 98.3645 21.6901C98.5325 22.0501 98.9165 22.2661 99.3005 22.3141C99.8285 22.4101 100.284 22.1701 100.716 21.9061C101.148 21.6421 102.18 20.7301 102.492 21.7381C102.564 21.9541 102.324 22.4821 102.396 22.7701C102.612 23.7301 103.524 23.6821 104.172 23.1781C104.412 22.9861 104.556 22.7461 104.748 22.5301C104.988 21.9541 105.348 21.8341 105.804 22.1701C105.804 22.3141 105.828 22.4581 105.876 22.5781C106.116 22.9381 106.236 23.1781 106.716 23.1541C107.172 23.1301 107.172 22.4101 106.716 22.4341C106.74 22.4341 106.212 21.3541 105.924 21.2341C105.588 21.0901 105.204 21.2101 104.892 21.4021C104.676 21.5221 104.508 21.7141 104.34 21.8821C103.98 22.2421 104.004 22.7701 103.428 22.4101C102.876 22.0741 103.332 21.5461 102.948 21.0661C102.324 20.2741 101.268 20.7061 100.596 21.1381C100.212 21.3781 99.2525 22.2421 99.0125 20.9701C98.9885 20.8021 99.1325 20.5381 99.1325 20.3701C99.1325 19.9861 99.0605 19.7701 98.7245 19.6021C98.3405 19.3141 97.9805 19.9381 98.3885 20.1541Z" fill="#00CC96"/>
<path fill-rule="evenodd" clip-rule="evenodd" d="M73.2845 76.2901C73.5725 79.6501 73.8605 83.0101 74.1725 86.3701C74.2205 86.8261 74.8445 86.8261 74.8925 86.3701C74.8925 86.2981 74.9165 86.2021 74.9165 86.1301C74.9645 85.6741 74.2445 85.6741 74.1965 86.1301C74.1965 86.2021 74.1725 86.2981 74.1725 86.3701C74.4125 86.3701 74.6525 86.3701 74.8925 86.3701C74.6045 83.0101 74.3165 79.6501 74.0045 76.2901C73.9565 75.8341 73.2365 75.8101 73.2845 76.2901Z" fill="#00B585"/>
<path fill-rule="evenodd" clip-rule="evenodd" d="M73.8365 76.5541C74.8445 76.3381 76.5965 76.0261 77.3645 76.8661C78.0605 77.6101 77.8925 79.0741 77.9885 80.0821C78.1565 82.0981 78.3245 84.1141 78.4925 86.1061C78.5405 86.5621 79.2605 86.5621 79.2125 86.1061C78.9725 83.2261 78.9485 80.2021 78.4685 77.3461C78.1085 75.1141 75.3245 75.5221 73.6445 75.8581C73.1885 75.9541 73.3805 76.6501 73.8365 76.5541Z" fill="#00B585"/>
<path fill-rule="evenodd" clip-rule="evenodd" d="M79.9804 63.0181C80.7484 70.6981 81.0124 78.4021 80.7724 86.1301C80.7484 86.5861 81.4684 86.5861 81.4924 86.1301C81.7324 78.4261 81.4684 70.6981 80.7004 63.0181C80.6524 62.5621 79.9324 62.5381 79.9804 63.0181Z" fill="#00B585"/>
<path fill-rule="evenodd" clip-rule="evenodd" d="M80.8444 63.0181C81.8284 63.1621 83.0284 63.1621 83.9404 63.4981C85.1644 63.9301 84.9724 66.1381 85.0924 67.2661C85.3084 69.4501 85.4524 71.6341 85.5964 73.8181C85.8604 78.3541 85.9564 82.8901 86.0524 87.4261C86.0524 87.8821 86.7724 87.8821 86.7724 87.4261C86.6524 82.1941 86.5324 76.9381 86.1724 71.7061C86.0044 69.2581 85.8844 66.7861 85.5004 64.3621C85.1644 62.2981 82.6924 62.5621 81.0364 62.2981C80.5804 62.2741 80.3884 62.9461 80.8444 63.0181Z" fill="#00B585"/>
<path fill-rule="evenodd" clip-rule="evenodd" d="M86.9405 58.5061C87.7565 67.6261 88.5965 76.7221 89.4125 85.8421C89.4605 86.2981 90.1805 86.2981 90.1325 85.8421C89.3165 76.7221 88.4765 67.6261 87.6605 58.5061C87.6365 58.0501 86.9165 58.0501 86.9405 58.5061Z" fill="#00B585"/>
<path fill-rule="evenodd" clip-rule="evenodd" d="M87.3965 58.8661C88.5485 58.6501 89.7245 58.5781 90.9005 58.6981C91.8845 58.7941 92.5805 58.9861 92.6285 60.0421C92.6525 60.4021 92.6525 60.7861 92.6525 61.1461C92.7245 62.9461 92.7965 64.7461 92.8925 66.5461C93.2045 73.4341 93.5645 80.2981 93.9245 87.1861C93.9485 87.6421 94.6685 87.6421 94.6445 87.1861C94.2605 79.7461 93.8765 72.3301 93.5405 64.8901C93.4685 63.3301 93.3965 61.7941 93.3485 60.2341C93.3245 59.5381 93.3245 58.8421 92.6765 58.3861C92.0765 57.9781 91.1405 57.9541 90.4445 57.9301C89.3645 57.8581 88.2845 57.9541 87.2045 58.1701C86.7485 58.2661 86.9405 58.9621 87.3965 58.8661Z" fill="#00B585"/>
<path fill-rule="evenodd" clip-rule="evenodd" d="M68.1244 56.2021C67.3324 57.7621 66.5644 59.3221 65.7724 60.8821C65.5564 61.2901 66.1804 61.6501 66.3964 61.2421C67.1884 59.6821 67.9564 58.1221 68.7484 56.5621C68.9404 56.1541 68.3164 55.7701 68.1244 56.2021Z" fill="#161616"/>
<path fill-rule="evenodd" clip-rule="evenodd" d="M68.2205 56.9221C68.5565 58.3141 69.3005 59.5381 70.4045 60.4501C70.7645 60.7381 71.2685 60.2341 70.9085 59.9461C69.9005 59.1061 69.2285 58.0261 68.9165 56.7541C68.7965 56.2741 68.1005 56.4661 68.2205 56.9221Z" fill="#161616"/>
<path fill-rule="evenodd" clip-rule="evenodd" d="M67.7164 57.2581C67.5724 67.7701 68.9404 78.2581 71.7964 88.3861C71.9164 88.8421 72.6124 88.6501 72.4924 88.1941C69.6604 78.1381 68.2924 67.7221 68.4364 57.2581C68.4364 56.8021 67.7164 56.8021 67.7164 57.2581Z" fill="#161616"/>
<path fill-rule="evenodd" clip-rule="evenodd" d="M72.6605 89.0101C78.2765 88.4821 83.9165 88.1941 89.5565 88.1701C94.8125 88.1461 100.5 87.9301 105.348 90.3061C105.756 90.4981 106.116 89.8981 105.708 89.6821C101.004 87.3781 95.6285 87.4261 90.4925 87.4501C84.5405 87.4501 78.5885 87.7381 72.6605 88.2901C72.2045 88.3381 72.2045 89.0581 72.6605 89.0101Z" fill="#161616"/>
<path fill-rule="evenodd" clip-rule="evenodd" d="M102.396 87.8341C103.692 88.6261 104.94 89.4901 106.092 90.4501C106.116 90.2581 106.14 90.0661 106.164 89.8741C105.18 90.6181 104.22 91.3621 103.236 92.1061C102.876 92.3941 103.236 93.0181 103.596 92.7301C104.58 91.9861 105.54 91.2421 106.524 90.4981C106.692 90.3781 106.788 90.0901 106.596 89.9221C105.372 88.9141 104.1 88.0021 102.756 87.2101C102.348 86.9941 101.988 87.5941 102.396 87.8341Z" fill="#161616"/>
<path fill-rule="evenodd" clip-rule="evenodd" d="M69.9485 69.4261C70.3085 69.8581 70.6685 70.2901 71.0285 70.7221C71.1725 70.8901 71.4845 70.8421 71.6045 70.6501C73.5245 66.8821 75.4205 63.0901 77.3645 59.3221C77.8685 58.3621 78.5645 59.1541 79.2845 59.4181C79.7405 59.5861 80.2205 59.5381 80.6765 59.3701C81.8285 58.9381 82.5965 57.7381 83.1245 56.6821C83.9885 54.8821 84.7565 53.0101 85.5965 51.1861C85.8125 50.6821 86.0525 50.1781 86.2685 49.6981C86.3885 49.4101 86.5325 48.8101 86.7725 48.5941C87.5165 47.9221 89.3405 49.4581 89.9645 49.8421C90.9965 50.4661 92.4845 51.8581 93.8285 51.4981C94.8365 51.2341 95.3165 50.1301 95.6045 49.2181C96.9965 45.1141 98.7725 41.3941 101.508 38.0101C101.724 37.7461 101.532 37.2901 101.148 37.4101C99.9005 37.8181 98.7725 38.4421 97.7405 39.2341C97.4045 39.4981 97.8365 39.9781 98.1725 39.8101C99.1085 39.3541 100.068 38.8741 101.004 38.4181C100.836 38.3461 100.644 38.2741 100.476 38.2021C100.764 39.6421 101.052 41.0821 101.316 42.5221C101.412 42.9781 102.108 42.7861 102.012 42.3301C101.724 40.8901 101.436 39.4501 101.172 38.0101C101.124 37.7701 100.836 37.6981 100.644 37.7941C99.7085 38.2501 98.7485 38.7301 97.8125 39.1861C97.9565 39.3781 98.1005 39.5701 98.2445 39.7621C99.1805 39.0181 100.188 38.4901 101.34 38.1061C101.22 37.9141 101.1 37.6981 100.98 37.5061C98.8925 40.0981 97.1645 42.9541 95.9165 46.0501C95.5805 46.8661 95.2925 47.7061 95.0285 48.5461C94.8125 49.2181 94.4765 50.6581 93.5885 50.8021C92.5805 50.9701 91.2845 49.8181 90.4685 49.3141C89.6525 48.8101 88.8605 48.2581 88.0205 47.8021C87.0605 47.2981 86.4605 47.4901 85.9805 48.4261C85.0685 50.2261 84.3245 52.1461 83.4845 53.9941C82.8605 55.3861 82.0685 58.1941 80.3645 58.6501C79.2125 58.9621 78.1565 57.2341 77.1245 58.2421C76.5245 58.8181 76.2125 59.8981 75.8525 60.6181C75.3005 61.6981 74.7725 62.7541 74.2205 63.8341C73.1405 65.9701 72.0365 68.1061 70.9565 70.2421C71.1485 70.2181 71.3405 70.1941 71.5325 70.1701C71.1725 69.7381 70.8125 69.3061 70.4525 68.8741C70.1405 68.5621 69.6365 69.0661 69.9485 69.4261Z" fill="#161616"/>
<path fill-rule="evenodd" clip-rule="evenodd" d="M174.42 9.78612C172.068 8.49012 171.06 5.20212 172.548 2.87412C174.06 0.498116 177.732 0.0661161 179.868 1.81812C182.052 3.64212 182.076 7.38612 179.988 9.28212C177.828 11.2741 174.204 10.7461 172.428 8.53812C172.14 8.17812 171.636 8.68212 171.924 9.04212C173.58 11.0581 176.532 11.7781 178.956 10.7701C181.308 9.78612 182.532 7.24212 182.22 4.77012C181.908 2.22612 180.012 0.330116 177.468 0.0421161C175.044 -0.245884 172.452 0.954116 171.54 3.30612C170.532 5.89812 171.66 9.04212 174.084 10.3621C174.468 10.6261 174.828 10.0021 174.42 9.78612Z" fill="#00CC96"/>
<path fill-rule="evenodd" clip-rule="evenodd" d="M184.836 14.2021C183.828 12.3301 186.42 10.2661 187.716 12.2821C188.868 14.0581 186.036 15.4021 185.124 13.7461C184.908 13.3381 184.284 13.6981 184.5 14.1061C185.076 15.1621 186.42 15.4501 187.476 14.9941C188.724 14.4661 189.036 13.0261 188.34 11.9221C187.62 10.7701 186.132 10.3141 184.98 11.1301C183.9 11.8981 183.564 13.4101 184.188 14.5861C184.452 14.9701 185.076 14.6101 184.836 14.2021Z" fill="#00CC96"/>
<path fill-rule="evenodd" clip-rule="evenodd" d="M53.3164 158.202C53.7724 158.274 54.3964 158.85 54.8764 161.586C56.2924 161.682 57.7084 161.778 59.1244 161.874C60.3004 160.89 61.4764 159.906 62.6524 158.898C62.8204 159.858 63.0364 161.274 63.2284 163.002C63.6604 167.01 63.3964 167.97 63.6604 170.202C63.7804 171.186 64.3324 175.338 66.9004 179.37C68.8684 182.466 70.1644 182.562 71.7004 185.586C72.9004 187.962 73.2604 190.194 73.4044 191.658C73.6444 191.634 76.6924 191.394 78.6364 193.77C79.5244 194.874 80.5084 196.938 79.7644 198.57C79.0444 200.154 77.3884 199.914 74.3884 202.53C73.3324 203.442 72.3244 204.354 72.5644 205.074C72.8044 205.818 74.1004 205.674 76.3804 206.898C77.5804 207.546 78.1564 207.882 78.3484 208.458C79.0685 210.546 74.5084 213.762 73.8364 214.242C71.6284 215.778 68.9404 216.978 68.6044 216.498C68.1004 215.778 73.5244 211.818 72.7084 210.282C72.1084 209.13 68.7004 210.57 67.9084 209.298C67.0444 207.906 70.0924 204.426 71.7244 202.53C74.8684 198.882 76.8604 197.97 76.5244 196.746C76.1644 195.45 73.4284 194.586 72.0124 195.474C70.8124 196.218 71.0524 197.898 70.5964 199.002C69.7324 201.114 65.6044 202.842 51.3964 201.258C51.5884 200.874 51.8764 200.418 52.2364 199.986C53.4604 198.57 54.9964 198.066 55.7644 197.874C55.5484 197.514 54.3004 195.378 55.0684 192.786C55.6444 190.818 57.0124 189.738 57.4684 189.402C56.5084 187.506 55.5484 185.442 54.6364 183.186C54.0604 181.722 53.5324 180.306 53.0764 178.938C51.7324 178.938 50.1724 178.698 48.9724 177.666C47.1724 176.082 47.8924 174.138 46.0204 172.722C44.2684 171.378 42.1804 171.978 41.8204 170.826C41.6524 170.274 41.9884 169.626 42.3484 169.29C43.2604 168.426 44.8924 168.858 46.6684 169.338C47.8924 169.674 49.6444 170.298 51.5884 171.474C50.9404 170.538 49.7644 168.57 49.6924 165.954C49.5244 162.018 51.9244 158.01 53.3164 158.202Z" fill="#041C3F"/>
<path fill-rule="evenodd" clip-rule="evenodd" d="M52.4765 175.434C50.8205 176.154 51.4445 181.026 52.0445 185.466C52.4285 188.274 53.0765 191.994 54.3005 196.338C50.9405 198.93 51.1085 199.674 51.2045 199.866C51.5165 200.514 53.7485 200.13 54.4445 200.01C55.1885 199.89 56.2445 199.698 56.8445 199.314C58.5485 198.186 57.6605 194.754 57.1325 189.282C56.3645 181.362 57.2765 178.05 54.7325 176.154C54.3965 175.89 53.2925 175.074 52.4765 175.434Z" fill="#041C3F"/>
<path fill-rule="evenodd" clip-rule="evenodd" d="M36.0605 185.37C36.1325 185.346 36.7565 185.034 36.7325 185.01C36.6845 184.986 36.6845 185.37 36.6845 185.466C36.6605 185.778 36.5645 186.162 36.6125 186.498C36.7085 186.978 37.0685 187.218 37.5485 187.17C37.8125 187.146 38.0045 187.026 38.2205 186.858C38.2685 186.81 38.6045 186.522 38.6285 186.522C38.6765 186.546 38.6765 187.074 38.7005 187.122C38.7965 187.578 39.1325 187.962 39.6365 187.914C40.0925 187.866 40.0925 187.146 39.6365 187.194C39.3965 187.218 39.3245 185.922 38.9165 185.778C38.7485 185.706 38.5565 185.754 38.4125 185.826C38.0525 185.994 37.5245 186.762 37.3565 186.09C37.2365 185.586 37.7405 184.866 37.2845 184.434C36.8525 184.026 36.1325 184.506 35.7245 184.722C35.2925 184.962 35.6525 185.586 36.0605 185.37Z" fill="white"/>
<path fill-rule="evenodd" clip-rule="evenodd" d="M52.5725 166.026C52.9805 165.642 53.6765 165.738 53.9645 166.218C54.1565 166.506 54.6125 166.242 54.4205 165.954C53.9405 165.186 52.8365 165.042 52.1885 165.642C51.9485 165.882 52.3325 166.266 52.5725 166.026Z" fill="white"/>
<path fill-rule="evenodd" clip-rule="evenodd" d="M57.7085 165.858C58.1405 165.426 58.8605 165.402 59.3165 165.81C59.5805 166.05 59.9645 165.666 59.7005 165.426C59.0285 164.802 57.9725 164.826 57.3245 165.474C57.0845 165.714 57.4685 166.098 57.7085 165.858Z" fill="white"/>
<path fill-rule="evenodd" clip-rule="evenodd" d="M53.5085 168.666C53.2445 169.194 52.1165 171.018 53.3405 171.162C53.8445 171.21 54.3245 170.754 54.6125 170.418C55.0205 169.938 55.2605 169.338 55.4765 168.762C55.6445 168.33 54.9485 168.138 54.7805 168.57C54.5165 169.242 54.2285 169.866 53.6525 170.346C53.5325 170.442 53.4605 170.61 53.5085 170.394C53.5325 170.25 53.6045 170.106 53.6765 169.986C53.8205 169.674 53.9645 169.362 54.1325 169.05C54.3245 168.594 53.7005 168.234 53.5085 168.666Z" fill="#EC615B"/>
<path fill-rule="evenodd" clip-rule="evenodd" d="M54.1565 169.05C54.4685 168.906 54.7085 168.714 54.9965 168.522C54.9005 168.546 54.8045 168.546 54.7085 168.57C54.7325 168.57 54.7565 168.594 54.7805 168.594C54.7085 168.546 54.6365 168.474 54.5645 168.426C54.5645 168.282 54.5405 168.282 54.4445 168.45C54.3725 168.522 54.3245 168.594 54.2525 168.69C54.1325 168.834 54.0365 168.978 53.9405 169.122C53.7245 169.458 53.5325 169.794 53.3405 170.154C53.1245 170.562 53.7485 170.922 53.9645 170.514C54.1805 170.13 54.3965 169.722 54.6365 169.362C54.8285 169.074 55.2365 168.762 55.2605 168.402C55.2845 168.138 55.0685 167.898 54.8285 167.898C54.6605 167.874 54.5405 167.97 54.4205 168.066C54.2045 168.234 54.0125 168.354 53.7485 168.474C53.3885 168.594 53.7485 169.218 54.1565 169.05Z" fill="#EC615B"/>
<path fill-rule="evenodd" clip-rule="evenodd" d="M53.4365 168.642C54.2285 168.666 54.9725 168.09 55.1165 167.298C55.1645 166.962 54.6605 166.818 54.5885 167.154C54.4925 167.73 54.0125 168.138 53.4365 168.114C53.0765 168.09 53.0765 168.618 53.4365 168.642Z" fill="white"/>
<path fill-rule="evenodd" clip-rule="evenodd" d="M54.6605 167.13C54.7565 168.09 55.5965 168.858 56.5805 168.786C56.9165 168.762 56.9165 168.21 56.5805 168.234C55.9085 168.282 55.2605 167.826 55.1885 167.13C55.1645 166.794 54.6365 166.794 54.6605 167.13Z" fill="white"/>
<path fill-rule="evenodd" clip-rule="evenodd" d="M200.508 121.89C192.564 131.514 184.644 141.114 176.7 150.738C189.156 153.834 201.612 156.93 214.068 160.026C214.476 154.866 214.572 144.33 208.836 133.314C206.244 128.322 203.148 124.578 200.508 121.89Z" fill="#00B585"/>
<path fill-rule="evenodd" clip-rule="evenodd" d="M174.372 152.682C186.948 155.85 199.548 158.994 212.124 162.162C211.98 164.178 211.572 166.986 210.372 170.106C208.956 173.85 206.964 176.562 205.524 178.242C195.156 169.722 184.764 161.202 174.372 152.682Z" fill="#00B585"/>
<ellipse cx="172.524" cy="152.49" rx="41.832" ry="42.888" stroke="#161616" stroke-width="0.72"/>
<path fill-rule="evenodd" clip-rule="evenodd" d="M173.052 151.578C173.148 151.482 173.388 151.554 173.436 151.674C173.46 151.578 173.46 151.482 173.484 151.386C173.46 151.434 173.388 151.41 173.364 151.386C173.172 151.314 172.98 151.458 172.932 151.626C172.884 151.818 173.004 152.01 173.172 152.058C173.46 152.154 173.796 152.082 173.988 151.866C174.228 151.626 174.156 151.29 173.94 151.074C173.556 150.69 172.956 150.666 172.572 151.026C172.188 151.362 172.692 151.89 173.052 151.578Z" fill="#161616"/>
<path fill-rule="evenodd" clip-rule="evenodd" d="M198.348 119.034C190.692 130.17 182.46 140.922 173.7 151.218C173.412 151.578 173.916 152.082 174.204 151.722C183.012 141.378 191.268 130.602 198.972 119.394C199.236 119.01 198.612 118.65 198.348 119.034Z" fill="#161616"/>
<path fill-rule="evenodd" clip-rule="evenodd" d="M173.34 152.034C186.876 154.458 200.316 157.314 213.66 160.626C214.116 160.746 214.308 160.05 213.852 159.93C200.508 156.642 187.068 153.762 173.532 151.338C173.076 151.266 172.884 151.962 173.34 152.034Z" fill="#161616"/>
<path fill-rule="evenodd" clip-rule="evenodd" d="M173.292 151.914C183.54 161.298 194.1 170.322 204.972 179.01C205.332 179.298 205.836 178.794 205.476 178.506C194.628 169.842 184.044 160.794 173.796 151.41C173.46 151.098 172.932 151.602 173.292 151.914Z" fill="#161616"/>
<path opacity="0.21" fill-rule="evenodd" clip-rule="evenodd" d="M172.548 109.698C173.436 113.658 174.036 119.298 171.852 125.058C166.884 138.21 152.46 138.858 146.988 149.586C144.012 155.418 143.268 165.066 152.676 181.866C152.676 184.698 152.676 187.506 152.676 190.338C149.892 188.778 146.82 186.666 143.868 183.786C132.66 172.818 130.932 158.49 130.572 153.042C130.596 149.106 131.148 136.314 140.58 124.89C142.716 122.298 150.3 113.418 163.212 110.562C166.98 109.746 170.244 109.626 172.548 109.698Z" fill="#6D6C6C"/>
<path fill-rule="evenodd" clip-rule="evenodd" d="M101.508 176.994C103.164 181.17 104.82 185.322 106.452 189.498C105.468 191.658 103.956 194.85 101.868 198.666C99.1325 203.658 97.8365 205.338 98.2685 205.842C98.8925 206.562 102.948 204.762 118.692 192.978C117.708 190.242 116.7 187.482 115.716 184.674C114.276 180.594 112.884 176.562 111.516 172.554C108.204 174.042 104.868 175.53 101.508 176.994Z" fill="#041C3F"/>
<path fill-rule="evenodd" clip-rule="evenodd" d="M145.764 103.842C148.428 108.378 146.532 115.41 146.268 116.346C144.804 121.794 141.492 122.322 129.348 133.818C121.74 141.042 119.556 143.97 117.948 147.186C115.764 151.602 114.972 155.706 114.66 158.49C115.644 164.25 116.628 169.986 117.612 175.746C115.092 177.378 111.564 179.322 107.052 180.69C103.884 181.65 101.004 182.13 98.6285 182.346C96.4205 176.754 93.2525 166.434 94.9565 153.882C97.0205 138.594 105.108 128.586 111.828 120.282C122.052 107.658 133.884 99.4741 144.012 94.1941C143.676 95.9941 143.484 98.5861 144.492 101.322C144.972 102.618 145.5 103.386 145.764 103.842Z" fill="#00F2B2"/>
<path opacity="0.2" fill-rule="evenodd" clip-rule="evenodd" d="M141.78 97.3381C138.78 105.45 135.18 111.738 131.916 116.466C122.196 130.602 115.02 131.754 109.284 144.882C105.612 153.282 104.82 161.298 104.58 164.178C103.98 170.874 104.508 176.562 105.18 180.738C106.524 180.69 108.204 180.498 110.052 179.97C113.628 178.938 116.172 177.138 117.636 175.866C117.228 173.922 116.628 171.042 115.956 167.514C115.044 162.618 114.588 160.146 114.588 158.394C114.588 153.234 116.772 149.346 118.548 146.25C119.388 144.786 121.836 140.73 130.404 132.882C139.452 124.602 143.22 123.162 145.596 117.09C147.012 113.466 146.988 110.586 146.964 109.65C146.748 103.338 143.196 98.9221 141.78 97.3381Z" fill="#6D6C6C"/>
<path opacity="0.27" fill-rule="evenodd" clip-rule="evenodd" d="M146.94 111.618C142.02 115.746 134.988 121.914 126.9 129.834C115.164 141.354 113.076 144.714 112.164 146.394C109.62 151.074 105.252 161.73 109.572 179.514C110.988 178.938 112.452 178.29 113.988 177.546C115.212 176.946 116.388 176.322 117.492 175.722C116.532 170.106 115.572 164.49 114.612 158.85C114.684 156.738 115.02 153.57 116.436 150.042C116.772 149.202 117.756 146.874 120.228 143.514C122.196 140.826 124.092 139.002 127.812 135.474C130.788 132.642 133.668 129.666 136.764 126.978C142.332 122.154 144.828 120.834 146.172 117.114C146.964 114.93 147.012 112.938 146.94 111.618Z" fill="#6D6C6C"/>
<path fill-rule="evenodd" clip-rule="evenodd" d="M127.932 176.466C131.58 179.274 135.228 182.082 138.876 184.89C134.028 197.178 134.028 200.37 135.012 200.922C136.644 201.858 141.996 196.074 145.044 191.826C147.756 188.01 149.34 184.434 150.252 181.938C148.764 180.042 147.06 178.074 145.164 176.058C142.548 173.274 139.98 170.898 137.556 168.834C134.364 171.402 131.148 173.922 127.932 176.466Z" fill="#041C3F"/>
<path fill-rule="evenodd" clip-rule="evenodd" d="M165.372 103.842C167.508 109.506 166.212 114.978 165.876 116.346C163.428 126.522 154.332 134.922 151.116 137.85C145.62 142.89 141.06 145.41 138.516 152.13C137.628 154.434 137.268 156.474 137.124 157.866C138.876 161.874 140.628 165.882 142.38 169.866C141.228 172.338 138.708 176.898 133.62 180.378C131.46 181.866 129.348 182.778 127.62 183.378C123.972 179.658 114.084 168.618 114.612 153.858C115.02 142.53 121.428 133.41 126.372 126.33C131.34 119.25 132.612 120.114 138.876 111.066C144.3 103.218 145.332 99.6421 149.892 98.0581C154.476 96.4501 161.196 97.3381 164.148 101.322C164.724 102.162 164.988 102.858 165.372 103.842Z" fill="#00F2B2"/>
<path opacity="0.24" fill-rule="evenodd" clip-rule="evenodd" d="M154.212 102.762C154.476 104.97 154.668 108.762 153.564 113.13C149.724 127.986 135.66 129.282 128.892 145.362C127.572 148.506 124.5 156.114 126.924 164.922C128.796 171.786 133.164 176.25 135.636 178.41C136.596 177.906 138.18 176.898 139.572 175.122C141.3 172.914 141.852 170.658 142.044 169.53C140.34 165.426 138.636 161.298 136.956 157.194C137.268 155.37 137.916 152.754 139.428 149.946C141.492 146.058 143.988 144.09 147.204 141.186C153.108 135.882 156.876 132.522 160.14 127.89C162.204 124.938 165.204 120.594 166.188 114.234C167.004 109.05 166.14 104.706 165.396 102.09C161.676 102.33 157.932 102.546 154.212 102.762Z" fill="#6D6C6C"/>
<path opacity="0.25" fill-rule="evenodd" clip-rule="evenodd" d="M166.428 110.466C164.532 113.946 161.268 119.37 156.228 125.178C146.532 136.338 139.956 138.666 135.444 147.258C133.5 150.954 131.724 157.05 133.908 166.842C136.668 167.946 139.452 169.05 142.212 170.178C140.46 166.05 138.732 161.946 136.98 157.818C137.148 155.778 137.652 152.754 139.356 149.634C140.868 146.85 142.548 145.386 146.244 142.026C152.364 136.458 155.436 133.674 156.684 132.282C159.54 129.138 162.66 125.61 164.628 120.162C166.068 116.298 166.38 112.818 166.428 110.466Z" fill="#6D6C6C"/>
<path fill-rule="evenodd" clip-rule="evenodd" d="M108.012 70.3861C107.364 68.9461 106.236 66.8581 104.172 64.9621C101.58 62.5861 97.9565 60.8821 97.3805 61.5781C97.1405 61.8661 97.1645 62.8741 101.532 67.6981" fill="white"/>
<path d="M108.012 70.3861C107.364 68.9461 106.236 66.8581 104.172 64.9621C101.58 62.5861 97.9565 60.8821 97.3805 61.5781C97.1405 61.8661 97.1645 62.8741 101.532 67.6981" stroke="#161616" stroke-width="0.5"/>
<path fill-rule="evenodd" clip-rule="evenodd" d="M98.9645 66.4501C98.0285 67.0261 96.3725 68.2501 95.4845 70.3621C95.1485 71.1781 94.7165 72.2341 95.0285 73.4581C95.5805 75.5701 98.1245 76.4581 98.3405 76.5541C99.3725 76.9141 99.6365 76.6501 100.38 77.0821C101.58 77.7781 101.532 78.7141 102.42 79.5781C104.244 81.3301 107.94 80.6341 108.108 79.8901C108.204 79.4821 107.148 79.0981 107.244 78.3541C107.292 77.8981 107.748 77.7061 108.06 77.4181C109.74 75.8821 108.132 71.3941 107.844 70.6501C107.58 69.9541 107.172 68.9461 106.452 67.8181" fill="white"/>
<path d="M98.9645 66.4501C98.0285 67.0261 96.3725 68.2501 95.4845 70.3621C95.1485 71.1781 94.7165 72.2341 95.0285 73.4581C95.5805 75.5701 98.1245 76.4581 98.3405 76.5541C99.3725 76.9141 99.6365 76.6501 100.38 77.0821C101.58 77.7781 101.532 78.7141 102.42 79.5781C104.244 81.3301 107.94 80.6341 108.108 79.8901C108.204 79.4821 107.148 79.0981 107.244 78.3541C107.292 77.8981 107.748 77.7061 108.06 77.4181C109.74 75.8821 108.132 71.3941 107.844 70.6501C107.58 69.9541 107.172 68.9461 106.452 67.8181" stroke="#161616" stroke-width="0.5"/>
<path fill-rule="evenodd" clip-rule="evenodd" d="M94.6205 73.1461C95.1725 74.5861 96.2285 75.8581 97.6925 76.4341C99.1805 77.0341 100.284 76.2421 100.308 74.6581C100.308 74.2021 99.5885 74.2021 99.5885 74.6581C99.5645 76.5061 97.7405 75.8341 96.8285 75.0901C96.1325 74.5381 95.6285 73.7941 95.3165 72.9541C95.1485 72.5221 94.4525 72.6901 94.6205 73.1461Z" fill="#161616"/>
<path fill-rule="evenodd" clip-rule="evenodd" d="M96.4205 71.1781C97.1405 72.5221 98.1005 74.0101 99.5885 74.5621C100.932 75.0661 101.724 74.2501 101.868 72.9781C101.916 72.5221 101.196 72.5221 101.148 72.9781C100.932 74.8741 99.0845 73.5541 98.4365 72.8821C97.8605 72.2821 97.4285 71.5621 97.0445 70.8181C96.8285 70.4101 96.2045 70.7701 96.4205 71.1781Z" fill="#161616"/>
<path fill-rule="evenodd" clip-rule="evenodd" d="M98.5805 67.9381C99.0125 68.8981 99.4445 69.8821 100.044 70.7461C100.452 71.3461 101.028 72.2101 101.82 72.3541C103.692 72.7141 103.092 70.0501 102.732 69.1381C102.564 68.7061 101.868 68.8981 102.036 69.3301C102.204 69.7381 102.564 70.5781 102.42 71.0341C102.012 72.3541 100.908 70.7221 100.668 70.3861C100.068 69.5221 99.6365 68.5381 99.2045 67.5781C99.0125 67.1461 98.3885 67.5061 98.5805 67.9381Z" fill="#161616"/>
<path fill-rule="evenodd" clip-rule="evenodd" d="M98.9405 66.8581C99.6605 66.4981 100.548 67.1461 101.052 67.6261C101.556 68.1061 101.892 68.7301 102.156 69.3541C102.324 69.7861 103.02 69.5941 102.852 69.1621C102.252 67.6741 100.476 65.2981 98.5805 66.2341C98.1725 66.4261 98.5325 67.0501 98.9405 66.8581Z" fill="#161616"/>
<path fill-rule="evenodd" clip-rule="evenodd" d="M150.996 59.4901C151.764 61.7701 150.588 63.7141 147.3 69.5701C141.78 79.3141 141.444 80.1781 140.172 81.7141C137.172 85.3141 135.468 87.3541 132.324 88.6741C126.588 91.0741 120.228 88.9621 116.748 87.6421C113.508 86.3941 111.108 84.7861 109.548 83.5861C108.492 82.7221 107.676 82.0501 107.148 81.6421C106.044 80.7541 105.54 80.3701 105.108 79.6021C105.084 79.5781 104.676 78.8341 104.58 77.9941C104.22 75.4261 106.764 73.2661 106.956 73.0981C103.908 73.8181 102.852 73.6741 102.66 73.2421C102.204 72.2821 105.516 68.7541 107.844 69.5461C108.948 69.9061 109.5 71.1541 109.908 72.0661C110.7 73.7941 110.604 75.4021 110.508 76.2181C111.972 77.2261 114.06 78.4021 116.724 79.1941C121.98 80.7301 126.492 79.9141 128.724 79.3381C129.948 77.3701 131.94 74.1541 134.364 70.1461C140.988 59.1541 142.74 55.6741 145.788 55.6261C148.068 55.6021 150.324 57.4981 150.996 59.4901Z" fill="white" stroke="#161616" stroke-width="0.5"/>
<path fill-rule="evenodd" clip-rule="evenodd" d="M106.74 73.7221C104.676 73.6261 104.388 76.2901 104.124 77.8021C104.364 77.8261 104.604 77.8741 104.82 77.8981C104.844 76.9381 105.276 76.1461 105.732 75.3301C105.972 74.9221 105.348 74.5621 105.108 74.9701C104.172 76.4821 103.596 78.3541 104.892 79.8421C105.06 79.6741 105.228 79.5061 105.396 79.3381C105.036 79.0261 104.844 78.6181 104.82 78.1141C104.58 78.1381 104.34 78.1861 104.124 78.2101C104.244 78.5941 104.388 78.9541 104.58 79.3141C104.796 79.7221 105.42 79.3621 105.204 78.9541C105.036 78.6661 104.892 78.3541 104.82 78.0181C104.724 77.6341 104.076 77.7061 104.124 78.1141C104.196 78.8101 104.412 79.3381 104.916 79.8421C105.252 80.1781 105.732 79.6741 105.42 79.3381C104.364 78.1141 105.036 76.5541 105.756 75.3301C105.54 75.2101 105.348 75.0901 105.132 74.9701C104.604 75.9061 104.148 76.7941 104.124 77.8981C104.1 78.3061 104.772 78.4021 104.82 77.9941C105.012 76.8901 105.18 74.3941 106.74 74.4421C107.196 74.4661 107.196 73.7461 106.74 73.7221Z" fill="white"/>
<path opacity="0.21" fill-rule="evenodd" clip-rule="evenodd" d="M147.324 56.6101C145.812 60.6661 143.364 66.4501 139.5 73.0021C135.564 79.6981 133.5 83.0581 129.948 84.8341C122.652 88.4581 111.396 86.0101 107.604 79.0741C106.452 76.9621 106.188 74.8261 106.188 73.2181C105.276 73.5301 103.86 73.8661 102.492 73.3381C99.4205 72.1141 99.1325 67.5301 97.5005 67.5781C96.4205 67.6261 95.6285 69.6661 95.3405 70.4101C95.0765 71.0821 94.6445 72.1861 94.9085 73.3381C95.2925 75.0421 97.0925 76.3861 99.3485 76.8181C100.524 77.3941 101.268 78.0421 101.724 78.5461C102.516 79.4101 102.732 80.0821 103.572 80.4901C104.316 80.8501 105.108 80.8021 105.636 80.7061C106.764 81.6181 108.54 82.9861 110.844 84.4021C115.788 87.4261 121.764 91.0741 128.532 89.8261C131.724 89.2501 133.908 87.7861 135.252 86.8981C137.436 85.4341 139.788 83.2261 144.252 75.1861C146.1 71.8501 148.38 67.4101 150.66 61.9381C150.756 61.6981 151.284 60.2821 150.54 58.7941C149.628 56.8261 147.444 56.6101 147.324 56.6101Z" fill="#6D6C6C"/>
<path opacity="0.22" fill-rule="evenodd" clip-rule="evenodd" d="M101.916 73.2901C101.58 73.5301 101.724 74.0101 101.316 74.3701C101.028 74.6101 100.644 74.6101 100.404 74.6101C100.404 74.9461 100.356 75.3781 100.092 75.7621C99.7565 76.2421 99.3005 76.3381 99.3245 76.5301C99.3725 76.7461 100.044 76.6261 100.692 76.9861C101.148 77.2501 101.436 77.6581 101.604 77.9701C103.188 76.4581 104.772 74.9701 106.356 73.4581C105.156 73.9141 104.268 73.8421 103.668 73.6981C102.9 73.4581 102.324 73.0021 101.916 73.2901Z" fill="#6D6C6C"/>
<path fill-rule="evenodd" clip-rule="evenodd" d="M150.804 54.7861C149.196 56.3941 148.356 58.2181 146.724 61.8661C145.428 64.7221 143.34 69.4981 142.644 75.8581C141.876 82.9621 143.676 84.5701 142.236 89.8501C141.156 93.8341 139.116 96.7621 137.604 98.5381C139.548 100.482 143.076 103.482 148.332 105.33C157.236 108.45 165.06 106.098 167.628 105.186C169.764 99.4261 171.876 93.6661 174.012 87.9301C174.036 83.0581 174.228 78.9061 174.42 75.6901C174.9 68.0101 175.692 62.1301 176.196 58.5541C176.772 54.3541 177.372 50.8261 177.828 48.2341C172.428 48.5221 167.964 49.1461 164.772 49.7221C154.308 51.6421 151.836 53.7541 150.804 54.7861Z" fill="white" stroke="#161616" stroke-width="0.5"/>
<path opacity="0.19" fill-rule="evenodd" clip-rule="evenodd" d="M163.524 49.8901C164.604 52.4581 165.996 56.6101 166.308 61.8181C167.052 74.2021 161.076 83.8981 156.54 91.2421C154.476 94.5781 151.284 99.2101 146.556 104.226C148.38 105.186 150.996 106.266 154.284 106.794C160.236 107.754 165.084 106.314 167.484 105.402C169.5 99.5941 171.492 93.8101 173.508 88.0021C173.628 84.0421 173.844 79.9381 174.156 75.7621C174.876 66.0181 176.052 56.8741 177.492 48.3781C172.836 48.8821 168.18 49.3861 163.524 49.8901Z" fill="#6D6C6C"/>
<path opacity="0.11" fill-rule="evenodd" clip-rule="evenodd" d="M167.82 49.1461C169.548 53.6101 171.348 60.1141 170.94 67.9381C169.788 89.7061 152.556 102.882 149.58 105.09C151.404 105.738 153.876 106.41 156.876 106.602C161.34 106.89 164.964 105.978 167.196 105.21C169.404 99.4021 171.636 93.6181 173.844 87.8101C173.844 82.5061 174.036 76.8421 174.492 70.8421C175.116 62.7541 176.148 55.2661 177.396 48.4981C174.204 48.7141 171.012 48.9301 167.82 49.1461Z" fill="#6D6C6C"/>
<path fill-rule="evenodd" clip-rule="evenodd" d="M176.94 47.9221C178.884 48.6421 181.74 50.0341 183.804 52.8421C186.108 55.9861 186.612 59.7781 185.292 71.8021C184.068 82.9861 183.012 85.3861 182.604 92.1061C182.148 99.4981 182.844 105.546 183.492 109.41C186.228 108.762 188.964 108.114 191.7 107.466C194.676 108.258 196.476 109.722 197.364 110.61C198.252 111.474 200.124 113.298 199.596 114.786C199.26 115.746 198.036 116.226 197.508 116.418C196.476 116.826 195.612 116.778 194.676 116.706C192.684 116.586 190.692 116.514 188.7 116.418C187.668 116.37 186.18 116.322 184.38 116.418C186.804 118.506 187.836 119.85 187.524 120.45C187.092 121.242 184.212 120.69 178.86 118.818C178.62 116.874 178.236 113.922 177.66 110.322C176.172 100.914 175.092 97.5541 174.372 92.5621C173.628 87.4021 173.868 82.7461 174.372 73.4581C174.756 66.8821 175.452 58.1941 176.94 47.9221Z" fill="white" stroke="#161616" stroke-width="0.5"/>
<path fill-rule="evenodd" clip-rule="evenodd" d="M188.076 113.226C189.924 112.458 191.844 112.89 193.62 113.682C195.132 114.33 196.62 115.122 197.796 116.274C198.132 116.586 198.636 116.082 198.3 115.77C196.932 114.45 195.228 113.562 193.476 112.866C191.676 112.122 189.732 111.786 187.86 112.554C187.476 112.698 187.668 113.394 188.076 113.226Z" fill="#161616"/>
<path fill-rule="evenodd" clip-rule="evenodd" d="M190.428 111.018C193.62 110.394 197.412 112.29 199.164 115.002C199.428 115.386 200.052 115.026 199.788 114.642C197.82 111.642 193.788 109.65 190.236 110.346C189.78 110.418 189.972 111.114 190.428 111.018Z" fill="#161616"/>
<path fill-rule="evenodd" clip-rule="evenodd" d="M193.188 109.362C194.46 109.41 195.564 109.962 196.668 110.562C197.076 110.778 197.436 110.154 197.028 109.938C195.804 109.29 194.58 108.69 193.188 108.642C192.732 108.618 192.732 109.338 193.188 109.362Z" fill="#161616"/>
<path opacity="0.16" fill-rule="evenodd" clip-rule="evenodd" d="M177.276 48.4981C178.476 51.2101 180.18 55.6261 181.044 61.2901C183.132 75.1621 177.996 82.3861 178.908 97.3861C179.124 101.106 179.82 106.65 182.028 113.394C183.948 112.77 186.876 112.146 190.308 112.53C192.732 112.818 193.932 112.962 195.132 113.826C196.332 114.69 197.028 115.842 198.252 115.77C198.732 115.746 199.38 115.53 199.644 115.026C200.292 113.85 198.516 111.834 197.916 111.162C197.052 110.178 195.276 108.498 192.012 107.514C189.18 108.09 186.348 108.666 183.516 109.242C182.964 106.794 182.196 102.714 182.124 97.6501C182.052 93.3301 182.82 88.0981 184.38 77.7781C184.668 75.8581 185.028 71.9941 185.772 64.2421C186.012 61.6981 186.204 59.4181 185.34 56.6101C184.908 55.1941 183.852 51.9781 180.732 49.9621C179.412 49.0501 178.14 48.6901 177.276 48.4981Z" fill="#6D6C6C"/>
<path opacity="0.22" fill-rule="evenodd" clip-rule="evenodd" d="M182.532 116.274C182.844 117.042 183.516 118.362 184.884 119.394C185.724 120.018 187.188 120.786 187.452 120.474C187.788 120.09 186.516 117.978 184.548 116.922C183.804 116.514 183.06 116.346 182.532 116.274Z" fill="#6D6C6C"/>
<path opacity="0.4" fill-rule="evenodd" clip-rule="evenodd" d="M185.22 68.2501C183.036 74.2501 180.42 83.8741 181.14 95.7541C181.5 101.826 182.676 107.058 183.924 111.21C182.676 106.458 182.316 102.522 182.196 99.8341C181.908 92.6581 183.204 88.6261 184.548 75.4501C184.884 72.4021 185.1 69.8821 185.22 68.2501Z" fill="#6D6C6C"/>
<path opacity="0.22" fill-rule="evenodd" clip-rule="evenodd" d="M190.068 110.466C190.02 110.178 192.42 109.074 194.796 109.602C197.988 110.322 199.476 113.682 199.74 114.33C198.612 113.058 196.788 111.402 194.148 110.778C191.916 110.274 190.092 110.706 190.068 110.466Z" fill="#6D6C6C"/>
<path fill-rule="evenodd" clip-rule="evenodd" d="M141.972 43.0021C140.964 43.9381 140.748 45.9061 140.34 49.7701C139.884 54.2101 139.692 56.4661 140.628 57.5941C142.332 59.6581 146.004 59.7781 148.548 58.6501C151.548 57.3061 152.58 54.4021 152.844 53.6821C154.02 50.3461 153.636 45.3061 150.084 43.0021C147.684 41.4181 143.964 41.1541 141.972 43.0021Z" fill="#072C62"/>
<path fill-rule="evenodd" clip-rule="evenodd" d="M147.156 46.5061C147.516 48.2341 149.436 48.3781 151.068 51.1381C152.244 53.1301 152.484 55.1701 152.508 56.6341C153.972 56.6101 156.684 56.3221 159.612 54.8101C161.892 53.6101 163.428 52.0981 164.316 51.0661C163.716 50.0821 162.828 48.6421 161.772 46.9141C157.212 39.5941 156.54 39.0181 155.628 38.7781C151.932 37.8901 146.46 43.2901 147.156 46.5061Z" fill="white" stroke="#161616" stroke-width="0.5"/>
<path fill-rule="evenodd" clip-rule="evenodd" d="M154.62 43.6021C153.516 45.9301 152.388 48.2341 150.852 50.3221C151.044 50.2981 151.236 50.2741 151.428 50.2501C151.284 50.0821 151.14 49.8901 151.02 49.7221C150.996 49.8661 150.972 50.0101 150.972 50.1541C151.596 49.6261 152.076 49.0501 152.508 48.3541C152.292 48.2341 152.1 48.1141 151.884 47.9941C151.548 48.7141 151.116 49.1461 150.42 49.4581C150.564 49.6501 150.708 49.8421 150.852 50.0341C152.1 48.8581 153.228 47.5621 154.236 46.1701C154.5 45.7861 153.876 45.4261 153.612 45.8101C152.652 47.1541 151.548 48.4021 150.348 49.5301C150.036 49.8181 150.444 50.2501 150.78 50.1061C151.572 49.7461 152.148 49.1701 152.508 48.3781C152.7 47.9701 152.148 47.6101 151.884 48.0181C151.476 48.6421 151.02 49.1701 150.468 49.6741C150.348 49.7701 150.324 49.9861 150.42 50.1061C150.636 50.4421 150.66 50.4901 150.948 50.7781C151.116 50.9701 151.38 50.8741 151.524 50.7061C153.06 48.6421 154.188 46.3141 155.292 43.9861C155.436 43.5541 154.812 43.1941 154.62 43.6021Z" fill="#161616"/>
<path fill-rule="evenodd" clip-rule="evenodd" d="M131.364 25.1701C130.26 27.2101 130.524 29.2741 131.052 33.3061C131.676 37.8661 132.492 41.6821 133.476 44.2021C133.62 44.5861 134.004 44.8021 134.412 44.7541C134.94 44.7061 135.732 44.2981 136.188 44.1541C136.764 45.1861 137.724 46.5781 139.212 47.8741C142.164 50.4181 145.404 51.0181 146.844 51.1861C148.26 50.6581 151.764 49.0981 154.092 45.3541C155.628 42.8581 155.94 40.5541 156.012 40.0261C156.42 36.5701 155.268 33.8821 154.716 32.7781C155.22 32.4661 155.988 31.9141 156.516 30.9781C157.62 29.0341 157.572 25.8181 155.82 24.9541C154.5 24.3061 152.412 25.0261 150.996 26.8741C150.54 26.0821 149.844 25.0261 148.788 23.9701C148.524 23.7061 146.58 21.7381 144.372 20.8501C140.052 19.1461 133.62 21.0181 131.364 25.1701Z" fill="white" stroke="#161616" stroke-width="0.5"/>
<path fill-rule="evenodd" clip-rule="evenodd" d="M137.7 46.3621C139.356 45.9301 140.316 44.5381 141.156 43.1701C141.396 42.7861 140.772 42.4261 140.532 42.8101C139.788 44.0101 138.948 45.2821 137.508 45.6901C137.052 45.7861 137.244 46.4821 137.7 46.3621Z" fill="#161616"/>
<path fill-rule="evenodd" clip-rule="evenodd" d="M139.884 43.1221C140.364 43.1461 140.748 43.3381 141.06 43.6981C141.372 44.0581 141.876 43.5301 141.564 43.1941C141.132 42.6901 140.532 42.4261 139.884 42.4021C139.404 42.4021 139.404 43.1221 139.884 43.1221Z" fill="#161616"/>
<path fill-rule="evenodd" clip-rule="evenodd" d="M138.06 39.1621C138.06 39.1381 138.06 39.1141 138.06 39.0901C138.06 38.8981 137.892 38.7301 137.7 38.7301C137.508 38.7301 137.34 38.8981 137.34 39.0901C137.34 39.1141 137.34 39.1381 137.34 39.1621C137.34 39.3541 137.508 39.5221 137.7 39.5221C137.892 39.4981 138.06 39.3541 138.06 39.1621Z" fill="#161616"/>
<path fill-rule="evenodd" clip-rule="evenodd" d="M139.668 37.2421C140.124 37.2421 140.124 36.5221 139.668 36.5221C139.212 36.5221 139.212 37.2421 139.668 37.2421Z" fill="#161616"/>
<path fill-rule="evenodd" clip-rule="evenodd" d="M139.452 39.0661C139.908 39.0661 139.908 38.3461 139.452 38.3461C138.996 38.3461 138.996 39.0661 139.452 39.0661Z" fill="#161616"/>
<path fill-rule="evenodd" clip-rule="evenodd" d="M130.332 33.3541C129.564 33.0901 127.932 32.3941 126.996 30.7861C125.532 28.2901 126.708 25.3861 127.284 24.0181C127.596 23.2501 128.46 21.3541 132.636 17.6341C135.804 14.7781 137.412 13.3621 139.212 12.5701C145.644 9.76212 152.22 12.4501 153.42 12.9541C155.196 13.6741 156.492 14.5621 159.06 16.2901C162.18 18.4021 164.172 19.7701 165.732 22.1221C167.628 25.0021 166.476 25.7461 168.108 28.9861C170.7 34.1221 174.276 33.4981 176.412 38.2501C176.772 39.0421 178.764 43.4581 176.508 47.3221C174.66 50.4661 170.892 51.5941 168.108 51.5221C162.948 51.3781 159.708 46.9621 158.004 44.6581C154.764 40.2661 154.14 35.6101 153.996 33.1141C156.036 32.0821 156.828 29.8741 156.084 28.3381C155.508 27.1141 153.828 26.0821 152.364 26.7061C151.356 27.1381 150.708 28.2901 150.732 29.5621C149.772 29.7301 146.82 30.0901 143.772 28.4101C141.516 27.1861 140.292 25.4581 139.764 24.5941C138.42 25.1221 136.26 26.1301 134.124 28.1221C132.084 30.0421 130.932 32.0581 130.332 33.3541Z" fill="#072C62"/>
<path opacity="0.24" fill-rule="evenodd" clip-rule="evenodd" d="M145.98 34.7461C148.644 37.2421 149.94 40.0021 150.348 40.9381C152.028 44.7781 151.932 48.3061 151.764 50.1061C152.628 48.6421 153.468 47.1781 154.332 45.6901C155.724 48.8101 157.092 51.9301 158.484 55.0261C159.228 54.8581 160.692 54.4261 162.108 53.1781C163.188 52.2181 163.764 51.1861 164.052 50.5381C162.036 49.0981 158.076 45.8341 155.772 40.2181C154.668 37.5301 154.236 35.0341 154.092 33.1621C156.036 32.1061 156.852 29.9941 156.204 28.4101C155.748 27.2581 154.332 25.9621 152.772 26.3941C151.452 26.7541 150.54 28.1701 150.756 29.7541C149.748 29.8741 147.348 30.0421 144.684 28.8661C141.924 27.6421 140.412 25.6501 139.836 24.8101C140.484 29.0581 142.116 31.3621 143.484 32.6821C144.348 33.5701 144.708 33.5701 145.98 34.7461Z" fill="#6D6C6C"/>
<path opacity="0.24" fill-rule="evenodd" clip-rule="evenodd" d="M154.14 35.8981C153.972 35.8981 154.068 38.3701 153.828 40.6501C153.516 43.5781 152.652 45.9061 151.932 47.4661C152.58 47.0581 153.54 46.2901 154.38 45.0901C155.58 43.3381 155.796 41.6101 155.868 40.7701C155.652 40.4341 155.364 39.9541 155.1 39.3541C154.26 37.4341 154.284 35.8981 154.14 35.8981Z" fill="#6D6C6C"/>
<path opacity="0.19" fill-rule="evenodd" clip-rule="evenodd" d="M154.98 44.2261C155.556 44.8261 156.372 45.6181 157.428 46.4821C160.62 49.1461 163.716 50.6581 163.812 50.4901C163.908 50.3221 160.884 49.0981 158.58 45.7861C157.14 43.7221 156.3 41.2741 155.94 41.3941C155.772 41.4421 155.916 42.0181 155.628 42.9541C155.436 43.5061 155.172 43.9381 154.98 44.2261Z" fill="#6D6C6C"/>
<path opacity="0.74" fill-rule="evenodd" clip-rule="evenodd" d="M157.644 15.4021C160.476 20.2981 162.492 24.5701 163.86 27.7381C167.676 36.6421 167.364 39.0901 166.836 40.6741C165.66 44.2501 162.396 46.2661 160.452 47.2261C160.932 47.8981 162.924 50.5621 166.572 51.3061C167.268 51.4501 171.468 52.2421 174.66 49.3381C177.036 47.2021 177.396 44.3701 177.468 43.6261C177.9 39.5941 175.5 36.5701 174.732 35.7061C173.724 34.5781 173.508 34.8421 171.156 32.5621C169.332 30.8101 168.444 29.9221 167.916 28.8181C167.076 27.0181 167.628 26.2501 166.644 23.9701C166.116 22.7221 165.492 21.8821 165.036 21.2341C162.708 18.0901 159.348 16.2421 157.644 15.4021Z" fill="#041C3F"/>
<path opacity="0.52" fill-rule="evenodd" clip-rule="evenodd" d="M140.58 51.0421C140.796 53.8261 143.34 55.8421 146.004 55.4581C148.572 55.0741 150.42 52.5781 149.964 49.9141C150.444 50.4661 151.116 51.3781 151.596 52.6261C151.98 53.6101 152.124 54.4981 152.172 55.1461C151.812 55.7461 149.94 58.7221 146.436 59.2981C145.836 59.3941 142.428 59.8981 140.82 57.8581C140.052 56.8501 139.98 55.6261 139.932 54.6421C139.884 53.0341 140.292 51.7621 140.58 51.0421Z" fill="#042048"/>
<path fill-rule="evenodd" clip-rule="evenodd" d="M136.068 35.2021C136.308 35.6821 136.308 36.3781 135.996 36.5221C135.684 36.6901 135.084 36.2341 134.868 35.7061C134.7 35.2501 134.748 34.6021 135.06 34.4821C135.396 34.3621 135.876 34.7941 136.068 35.2021Z" fill="#161616"/>
<path fill-rule="evenodd" clip-rule="evenodd" d="M134.1 34.6501C134.94 34.3621 135.804 34.1461 136.692 34.0021C137.028 33.9541 136.884 33.4261 136.548 33.4741C135.66 33.6181 134.796 33.8341 133.956 34.1221C133.62 34.2421 133.764 34.7461 134.1 34.6501Z" fill="#161616"/>
<path fill-rule="evenodd" clip-rule="evenodd" d="M93.4444 213.81C107.916 212.466 122.412 210.714 136.932 210.114C151.572 209.514 166.284 209.898 180.924 210.282C189.324 210.498 197.724 210.906 206.076 211.698C206.532 211.746 206.532 211.026 206.076 210.978C191.388 209.586 176.652 209.418 161.916 209.25C154.524 209.154 147.132 209.082 139.764 209.322C132.588 209.538 125.436 210.138 118.284 210.786C110.004 211.554 101.724 212.322 93.4444 213.09C92.9884 213.114 92.9884 213.834 93.4444 213.81Z" fill="#E8E8E8"/>
<path fill-rule="evenodd" clip-rule="evenodd" d="M168.756 203.202C174.78 204.33 180.732 204.282 186.804 203.73C193.044 203.154 199.26 202.794 205.524 202.506C218.1 201.954 230.676 201.45 243.228 200.922C250.404 200.61 257.58 200.322 264.756 200.01C265.212 199.986 265.212 199.266 264.756 199.29C252.156 199.818 239.58 200.346 226.98 200.874C214.596 201.402 202.14 201.666 189.78 202.722C186.42 203.01 183.06 203.394 179.7 203.442C176.1 203.49 172.5 203.154 168.948 202.482C168.492 202.434 168.3 203.13 168.756 203.202Z" fill="#E8E8E8"/>
<path fill-rule="evenodd" clip-rule="evenodd" d="M5.46045 198.114C16.6444 198.426 27.8284 198.378 39.0124 197.97C39.4684 197.946 39.4684 197.226 39.0124 197.25C27.8284 197.658 16.6444 197.706 5.46045 197.394C4.98045 197.37 4.98045 198.09 5.46045 198.114Z" fill="#E8E8E8"/>
<path fill-rule="evenodd" clip-rule="evenodd" d="M17.6765 207.762C21.7565 206.898 26.0765 207.45 30.2045 207.642C34.3565 207.858 38.4845 208.05 42.6365 208.266C51.0845 208.698 59.5085 209.13 67.9565 209.538C68.4125 209.562 68.4125 208.842 67.9565 208.818C59.3645 208.386 50.7485 207.954 42.1565 207.522C37.8605 207.306 33.5645 207.09 29.2685 206.874C25.3565 206.682 21.3725 206.226 17.5085 207.066C17.0525 207.162 17.2445 207.858 17.6765 207.762Z" fill="#E8E8E8"/>
<path fill-rule="evenodd" clip-rule="evenodd" d="M172.212 195.738C191.1 195.738 209.964 195.738 228.852 195.738C229.308 195.738 229.308 195.018 228.852 195.018C209.964 195.018 191.1 195.018 172.212 195.018C171.732 195.018 171.732 195.738 172.212 195.738Z" fill="#161616"/>
<path fill-rule="evenodd" clip-rule="evenodd" d="M240.708 195.738C244.308 195.738 247.908 195.738 251.508 195.738C251.964 195.738 251.964 195.018 251.508 195.018C247.908 195.018 244.308 195.018 240.708 195.018C240.252 195.018 240.252 195.738 240.708 195.738Z" fill="#161616"/>
<path fill-rule="evenodd" clip-rule="evenodd" d="M117.804 206.634C130.356 206.634 142.932 206.634 155.484 206.634C155.94 206.634 155.94 205.914 155.484 205.914C142.932 205.914 130.356 205.914 117.804 205.914C117.348 205.914 117.348 206.634 117.804 206.634Z" fill="#161616"/>
<path fill-rule="evenodd" clip-rule="evenodd" d="M155.004 203.754C165.876 203.754 176.772 203.754 187.644 203.754C188.1 203.754 188.1 203.034 187.644 203.034C176.772 203.034 165.876 203.034 155.004 203.034C154.548 203.034 154.548 203.754 155.004 203.754Z" fill="#161616"/>
<path fill-rule="evenodd" clip-rule="evenodd" d="M67.2845 201.786C70.5725 201.786 73.8365 201.786 77.1245 201.786C77.8205 201.786 77.8205 200.706 77.1245 200.706C73.8365 200.706 70.5725 200.706 67.2845 200.706C66.5885 200.706 66.5885 201.786 67.2845 201.786Z" fill="#161616"/>
<path fill-rule="evenodd" clip-rule="evenodd" d="M80.4845 201.786C81.6125 201.786 82.7165 201.786 83.8445 201.786C84.5405 201.786 84.5405 200.706 83.8445 200.706C82.7165 200.706 81.6125 200.706 80.4845 200.706C79.7885 200.706 79.7885 201.786 80.4845 201.786Z" fill="#161616"/>
</g>
<defs>
<filter id="filter0_d" x="-30" y="26" width="346" height="321" filterUnits="userSpaceOnUse" color-interpolation-filters="sRGB">
<feFlood flood-opacity="0" result="BackgroundImageFix"/>
<feColorMatrix in="SourceAlpha" type="matrix" values="0 0 0 0 0 0 0 0 0 0 0 0 0 0 0 0 0 0 127 0"/>
<feOffset/>
<feGaussianBlur stdDeviation="15"/>
<feColorMatrix type="matrix" values="0 0 0 0 0 0 0 0 0 0.8 0 0 0 0 0.588235 0 0 0 0.210992 0"/>
<feBlend mode="normal" in2="BackgroundImageFix" result="effect1_dropShadow"/>
<feBlend mode="normal" in="SourceGraphic" in2="effect1_dropShadow" result="shape"/>
</filter>
<clipPath id="clip0">
<rect width="286" height="317" fill="white"/>
</clipPath>
</defs>
</svg>
