<svg width="40" height="41" viewBox="0 0 40 41" fill="none" xmlns="http://www.w3.org/2000/svg">
<path fill-rule="evenodd" clip-rule="evenodd" d="M30.5439 5.40477H21.4938V2.54763C21.4938 1.60086 20.7341 0.833344 19.797 0.833344C18.8598 0.833344 18.1001 1.60086 18.1001 2.54763V5.40477H9.05004V2.54763C9.05004 1.60086 8.29032 0.833344 7.35315 0.833344C6.41599 0.833344 5.65627 1.60086 5.65627 2.54763V5.4304C2.48508 5.7191 0 8.4116 0 11.6905V15.6905V19.1191V34.5476C0 38.0191 2.78564 40.8333 6.2219 40.8333H33.372C36.8083 40.8333 39.5939 38.0191 39.5939 34.5476V19.1191V15.6905V11.6905C39.5939 8.41161 37.1088 5.7191 33.9376 5.4304V2.54763C33.9376 1.60086 33.1779 0.833344 32.2408 0.833344C31.3036 0.833344 30.5439 1.60086 30.5439 2.54763V5.40477ZM7.35315 8.83334H6.2219C4.65996 8.83334 3.39376 10.1125 3.39376 11.6905V15.6905H36.2001V11.6905C36.2001 10.1125 34.9339 8.83334 33.372 8.83334H32.2408H19.797H7.35315ZM3.39376 34.5476V19.1191H36.2001V34.5476C36.2001 36.1256 34.9339 37.4048 33.372 37.4048H6.2219C4.65996 37.4048 3.39376 36.1256 3.39376 34.5476Z" fill="#7F8B9C"/>
</svg>
