<svg width="39" height="41" viewBox="0 0 39 41" fill="none" xmlns="http://www.w3.org/2000/svg">
<path fill-rule="evenodd" clip-rule="evenodd" d="M15.5325 2.09506C17.5535 -0.253935 21.2059 -0.253935 23.2252 2.09506L24.0855 3.08499C24.4972 3.57157 25.145 3.77291 25.7607 3.63868L27.0496 3.31989C30.0709 2.59841 33.0265 4.74606 33.2712 7.81653L33.3774 9.14204C33.4264 9.76284 33.8262 10.3165 34.4116 10.5514L35.6363 11.0548C38.5059 12.2461 39.6344 15.7024 38.0116 18.3367L37.3216 19.4608C36.9893 19.9977 36.9893 20.6689 37.3216 21.2058L38.0116 22.33C39.6344 24.9642 38.5059 28.4206 35.6363 29.6118L34.4116 30.1152C33.8262 30.3501 33.4264 30.9038 33.3774 31.5246L33.2712 32.8501C33.0265 35.9206 30.0709 38.0682 27.0496 37.3467L25.7607 37.0279C25.145 36.8937 24.4972 37.0951 24.0855 37.5816L23.2252 38.5716C21.2059 40.9206 17.5535 40.9206 15.5325 38.5716L14.6722 37.5816C14.2606 37.0951 13.6144 36.8937 12.997 37.0279L11.7081 37.3467C8.68676 38.0682 5.73286 35.9206 5.48656 32.8501L5.38028 31.5246C5.33136 30.9038 4.93154 30.3501 4.34616 30.1152L3.1231 29.6118C0.251855 28.4206 -0.876736 24.9642 0.74614 22.33L1.43612 21.2058C1.76845 20.6689 1.76845 19.9977 1.43612 19.4608L0.74614 18.3367C-0.876736 15.7024 0.251855 12.2461 3.1231 11.0548L4.34616 10.5514C4.93154 10.3165 5.33136 9.76284 5.38028 9.14204L5.48656 7.81653C5.73286 4.74606 8.68676 2.59841 11.7081 3.31989L12.997 3.63868C13.6144 3.77291 14.2606 3.57157 14.6722 3.08499L15.5325 2.09506ZM20.661 4.27627C19.9879 3.48768 18.7699 3.48768 18.0968 4.27627L17.2347 5.2662C16.0015 6.70915 14.0598 7.32996 12.2109 6.89372L10.9237 6.5917C9.91657 6.3568 8.93138 7.0615 8.84871 8.08499L8.74412 9.39372C8.59398 11.2897 7.39454 12.934 5.63839 13.6555L4.41533 14.1588C3.45881 14.5447 3.08261 15.7024 3.62413 16.5749L4.31411 17.6991C5.30605 19.3266 5.30605 21.34 4.31411 22.9675L3.62413 24.0917C3.08261 24.9642 3.45881 26.1219 4.41533 26.5078L5.63839 27.0112C7.39454 27.7326 8.59398 29.3769 8.74412 31.2729L8.84871 32.5816C8.93138 33.6051 9.91657 34.3098 10.9237 34.0749L12.2109 33.7729C14.0598 33.3367 16.0015 33.9575 17.2347 35.4004L18.0968 36.3904C18.7699 37.179 19.9879 37.179 20.661 36.3904L21.523 35.4004C22.7579 33.9575 24.6979 33.3367 26.5468 33.7729L27.834 34.0749C28.8411 34.3098 29.8263 33.6051 29.909 32.5816L30.0136 31.2729C30.1637 29.3769 31.3632 27.7326 33.1193 27.0112L34.3424 26.5078C35.2989 26.1219 35.6751 24.9642 35.1336 24.0917L34.4436 22.9675C33.4517 21.34 33.4517 19.3266 34.4436 17.6991L35.1336 16.5749C35.6751 15.7024 35.2989 14.5447 34.3424 14.1588L33.1193 13.6555C31.3632 12.934 30.1637 11.2897 30.0136 9.39372L29.909 8.08499C29.8263 7.0615 28.8411 6.3568 27.834 6.5917L26.5468 6.89372C24.6979 7.32996 22.7579 6.70915 21.523 5.2662L20.661 4.27627ZM17.1976 14.1085C17.8572 14.7628 17.8572 15.8367 17.1976 16.491L15.5106 18.1689C14.851 18.8232 13.7848 18.8232 13.1252 18.1689C12.4656 17.5145 12.4656 16.4407 13.1252 15.7863L14.8122 14.1085C15.4718 13.4541 16.538 13.4541 17.1976 14.1085ZM25.6325 14.1085C26.2921 14.7628 26.2921 15.8367 25.6325 16.491L15.5106 26.5581C14.851 27.2125 13.7848 27.2125 13.1252 26.5581C12.4656 25.9038 12.4656 24.83 13.1252 24.1756L23.2471 14.1085C23.9067 13.4541 24.9729 13.4541 25.6325 14.1085ZM25.6325 22.4977C26.2921 23.1521 26.2921 24.2259 25.6325 24.8803L23.9455 26.5581C23.2859 27.2125 22.2197 27.2125 21.5601 26.5581C20.9005 25.9038 20.9005 24.83 21.5601 24.1756L23.2471 22.4977C23.9067 21.8434 24.9729 21.8434 25.6325 22.4977Z" fill="#7F8B9C"/>
</svg>
