<svg width="42" height="41" viewBox="0 0 42 41" fill="none" xmlns="http://www.w3.org/2000/svg">
<path fill-rule="evenodd" clip-rule="evenodd" d="M21.9586 40.5C32.7769 40.5 41.547 31.5457 41.547 20.5C41.547 9.4543 32.7769 0.5 21.9586 0.5C11.1402 0.5 2.37014 9.4543 2.37014 20.5C2.37014 25.3373 4.06355 29.8946 7.03564 33.4577L2.43308 33.5056C1.59215 33.5143 0.903362 34.2031 0.894619 35.044C0.885876 35.8849 1.56049 36.5596 2.40142 36.5508L11.0147 36.4613C11.8556 36.4525 12.5444 35.7637 12.5532 34.9228L12.6427 26.3095C12.6515 25.4686 11.9769 24.794 11.1359 24.8027C10.295 24.8114 9.60621 25.5002 9.59747 26.3412L9.54164 31.7115C6.89545 28.6611 5.38375 24.7076 5.38375 20.5C5.38375 11.1536 12.8045 3.57692 21.9586 3.57692C31.1126 3.57692 38.5334 11.1536 38.5334 20.5C38.5334 29.8464 31.1126 37.4231 21.9586 37.4231C21.1264 37.4231 20.4518 38.1119 20.4518 38.9615C20.4518 39.8112 21.1264 40.5 21.9586 40.5ZM21.9586 10.3476C22.7907 10.3476 23.4654 11.0364 23.4654 11.8861V21.914L28.3589 26.9104C28.9474 27.5112 28.9474 28.4853 28.3589 29.0862C27.7705 29.687 26.8164 29.687 26.228 29.0862L20.8931 23.6391C20.6105 23.3506 20.4518 22.9593 20.4518 22.5513V11.8861C20.4518 11.0364 21.1264 10.3476 21.9586 10.3476Z" fill="#7F8B9C"/>
</svg>
