<svg width="40" height="31" viewBox="0 0 40 31" fill="none" xmlns="http://www.w3.org/2000/svg">
<path fill-rule="evenodd" clip-rule="evenodd" d="M0 5.16667C0 2.31294 2.23833 0 5 0H35C37.7617 0 40 2.31294 40 5.16667V25.8333C40 28.6871 37.7617 31 35 31H5C2.23833 31 0 28.6871 0 25.8333V5.16667ZM5 3.44444C4.08 3.44444 3.33333 4.216 3.33333 5.16667V6.88889H36.6667V5.16667C36.6667 4.216 35.92 3.44444 35 3.44444H5ZM36.6667 10.3333H3.33333V25.8333C3.33333 26.784 4.08 27.5556 5 27.5556H35C35.92 27.5556 36.6667 26.784 36.6667 25.8333V10.3333ZM6.66667 22.3889C6.66667 21.4382 7.41333 20.6667 8.33333 20.6667H18.3333C19.2533 20.6667 20 21.4382 20 22.3889C20 23.3396 19.2533 24.1111 18.3333 24.1111H8.33333C7.41333 24.1111 6.66667 23.3396 6.66667 22.3889Z" fill="#7F8B9C"/>
</svg>
