<svg width="40" height="41" viewBox="0 0 40 41" fill="none" xmlns="http://www.w3.org/2000/svg">
<path fill-rule="evenodd" clip-rule="evenodd" d="M19.7814 40.6667C30.7064 40.6667 39.5628 31.7124 39.5628 20.6667C39.5628 9.62099 30.7064 0.666687 19.7814 0.666687C8.85644 0.666687 0 9.62099 0 20.6667C0 31.7124 8.85644 40.6667 19.7814 40.6667ZM19.7814 37.5898C10.5372 37.5898 3.0433 30.013 3.0433 20.6667C3.0433 11.3203 10.5372 3.74361 19.7814 3.74361C29.0256 3.74361 36.5195 11.3203 36.5195 20.6667C36.5195 30.013 29.0256 37.5898 19.7814 37.5898ZM19.7814 10.5143C20.6218 10.5143 21.3031 11.2031 21.3031 12.0528V22.0807L26.2449 27.0771C26.8391 27.6779 26.8391 28.652 26.2449 29.2528C25.6506 29.8536 24.6872 29.8536 24.0929 29.2528L18.7055 23.8058C18.4201 23.5173 18.2598 23.126 18.2598 22.718V12.0528C18.2598 11.2031 18.941 10.5143 19.7814 10.5143Z" fill="#7F8B9C"/>
</svg>
